<?xml version="1.0" encoding="UTF-8" standalone="no"?>
<svg width="91px" height="55px" viewBox="0 0 91 55" version="1.1" xmlns="http://www.w3.org/2000/svg" xmlns:xlink="http://www.w3.org/1999/xlink" xmlns:sketch="http://www.bohemiancoding.com/sketch/ns">
    <!-- Generator: Sketch 3.3.1 (12005) - http://www.bohemiancoding.com/sketch -->
    <title>logo-iplayer</title>
    <desc>Created with Sketch.</desc>
    <defs></defs>
    <g id="Styles" stroke="none" stroke-width="1" fill="none" fill-rule="evenodd" sketch:type="MSPage">
        <g id="logo-iplayer" sketch:type="MSArtboardGroup" fill="#0038CC">
            <path d="M68.1423707,37.8143943 C68.3029023,35.9845903 69.2063838,34.4920064 71.1867495,34.4920064 C73.3798464,34.4920064 74.2250503,35.9845903 74.2250503,37.8143943 L68.1423707,37.8143943 L68.1423707,37.8143943 Z M40.6907619,43.9778878 C39.4154479,43.9778878 38.439745,43.3389258 38.439745,42.2391082 C38.439745,40.7131965 39.9024054,40.1333644 41.7569202,40.1333644 C42.5810298,40.1333644 43.3715314,40.1985865 44.06979,40.2272556 C44.06979,42.0868037 42.7651584,43.9814715 40.6907619,43.9814715 L40.6907619,43.9778878 Z M19.4172935,36.3941998 L17.94784,36.3941998 L17.94784,29.9114043 L19.4172935,29.9114043 C21.3704869,29.9114043 22.9357588,30.9438495 22.9357588,33.1219828 C22.9357588,35.3603211 21.3704869,36.3941998 19.4172935,36.3941998 L19.4172935,36.3941998 Z M64.1083453,34.2103327 L65.2145471,31.3832031 L59.7403858,31.3832031 L56.4868512,41.7535257 L56.370296,41.7535257 L52.963738,31.3832031 L47.0587514,31.3832031 L47.8317341,33.3380759 L47.7208994,33.3660283 C46.3376109,31.6971295 44.0419025,31.0205393 41.5291727,31.0205393 C39.1844827,31.0205393 37.9517148,31.3115304 35.896625,31.884912 C35.8969826,31.884912 34.6720804,35.5825065 34.6166631,35.7416198 C34.5001079,35.9197265 34.7607482,36.1042837 34.912699,36.0164846 C36.3213722,35.3424029 38.0900794,34.6822974 40.3400237,34.6822974 C42.3182443,34.6822974 43.9314254,35.259621 43.9632457,37.4255699 C43.2631994,37.2990676 42.2874966,37.2101934 41.4086847,37.2101934 C39.0840164,37.2101934 35.2809562,37.5800245 33.8215135,40.172426 L33.701383,40.1674089 L33.701383,25.827494 L28.2261491,25.827494 L28.2261491,30.8836444 L28.1095939,30.8854362 C27.2125479,27.5852669 24.2128605,25.827494 18.8438134,25.827494 L12.048574,25.827494 L12.0210441,31.5218898 L6.59157411,26.6305866 C5.93800694,26.080857 5.32198056,25.8300025 4.26261539,25.8300025 L2.11170724,25.8300025 C1.14994811,25.8300025 0.379468217,26.6449211 0.379468217,27.6490556 L0.379468217,31.001546 L5.7134773,31.001546 L5.7134773,29.492119 C5.7134773,28.9889767 6.30948194,28.7280881 6.68453225,29.1029363 L14.3399919,35.9673888 C14.6860822,36.3142847 14.7443598,36.7006005 14.3850408,37.086558 L6.70026362,44.0190997 C6.27801919,44.3434186 5.72885115,44.0914891 5.72885115,43.6195244 L5.72885115,33.5240666 L0.394842061,33.5240666 L0.394842061,45.5116836 C0.394842061,46.3696058 1.13636193,47.2712483 2.15711371,47.2712483 L4.2787043,47.2712483 C5.33806947,47.2712483 5.94372745,47.0214689 6.62768477,46.5004084 L12.0382056,41.5997878 L12.0382056,47.2712483 L17.7293884,47.2712483 L17.7293884,40.4394068 L19.9328536,40.4394068 C24.3287007,40.4394068 27.2343573,38.4576567 28.1188897,35.3373858 L28.2243614,35.3391777 L28.2243614,47.2723234 L33.6985228,47.2723234 L33.6985228,45.061579 L33.8179382,45.0594289 C34.804367,46.7913996 36.8894894,47.5794409 39.1526624,47.6389292 C41.9217421,47.7120354 43.4144352,46.3477456 43.9914906,45.9814981 C44.1491619,45.8678969 44.2496282,45.8506954 44.2632144,46.0087337 C44.3297152,46.4545379 44.4072995,46.9333115 44.4072995,47.2769821 L49.4288263,47.2769821 C49.1899954,46.0273686 49.122422,44.7763217 49.122422,43.5267082 L49.122422,37.6086936 C49.122422,37.2743405 49.0802333,36.959339 49.0112297,36.6565218 L49.1249247,36.6289278 L53.4760803,47.6400043 C53.4760803,47.6400043 52.7488617,50.0947942 50.4788956,50.0947942 C49.5453815,50.0947942 48.9429413,49.9607663 48.0877265,49.5482899 C47.9407811,49.4898766 47.8210081,49.5654913 47.7727414,49.7052531 L46.4509483,53.7293167 C47.2403773,54.1256667 49.202509,54.7581782 51.3144462,54.7581782 C55.9312476,54.7581782 57.9720361,49.6823178 59.3460288,46.1807482 L62.6592711,37.7513223 L62.772966,37.7789163 C62.6396069,38.2709493 62.6260207,38.7841258 62.6260207,39.3213127 C62.6260207,44.5702627 66.6099917,47.6493218 71.8463947,47.6493218 C73.4277555,47.6493218 75.1971778,47.3651395 76.5236189,46.851963 C76.5236189,46.851963 77.6333959,43.5507186 77.8668639,42.8529849 C78.0020107,42.6114479 77.7134829,42.4899627 77.5615321,42.5748948 C76.2014832,43.3317585 74.627988,43.9893555 72.8188798,43.9893555 C70.1402555,43.9893555 68.4670091,43.1325084 68.1631075,40.9393239 L78.7617646,40.9393239 L78.7617646,47.2816408 L84.2409314,47.2816408 L84.2409314,40.572718 C84.2409314,37.0965922 86.0961612,35.6014997 88.2431365,35.6014997 C88.7712102,35.6014997 89.1712877,35.7613298 89.1712877,35.7613298 L90.5999827,31.4502171 C90.6686287,31.3201312 90.552431,31.1914787 90.4408813,31.1656765 C89.9496333,31.0932871 89.3815161,31.0234062 88.8366384,31.0234062 C86.4662061,31.0234062 84.7679325,32.3045557 83.8286979,34.3189168 L83.7092824,34.3189168 L83.7092824,31.3896537 L78.7213636,31.3896537 L78.7213636,36.6052758 L78.6048084,36.599542 C77.743158,33.4025814 75.4495949,31.0205393 71.0201399,31.0205393 C68.0097266,31.0205393 65.5173761,32.1587017 64.0250406,34.2361348 L64.1083453,34.2103327 L64.1083453,34.2103327 Z" id="Fill-1" sketch:type="MSShapeGroup"></path>
            <path d="M48.4785382,12.7447323 C48.4785382,14.8475754 45.8685898,14.7224331 45.8685898,14.7224331 L43.258964,14.7224331 L43.258964,10.9232169 L45.8685898,10.9232169 C48.5562882,10.9076953 48.4785382,12.7447323 48.4785382,12.7447323 L48.4785382,12.7447323 Z M43.258964,5.1307783 L45.247235,5.1307783 C47.3135785,5.24039906 47.2355059,6.781557 47.2355059,6.781557 C47.2355059,8.69684833 44.952043,8.72789138 44.952043,8.72789138 L43.258964,8.72789138 L43.258964,5.1307783 L43.258964,5.1307783 Z M47.9971979,9.47518807 C47.9971979,9.47518807 49.7831897,8.71236986 49.7680269,6.6881045 C49.7680269,6.6881045 50.0393454,3.37167231 45.6550192,2.96681923 L40.7890302,2.96681923 L40.7890302,16.871194 L46.3660608,16.871194 C46.3660608,16.871194 51.026222,16.8867155 51.026222,12.9474822 C51.0265446,12.9474822 51.134943,10.2693727 47.9971979,9.47518807 L47.9971979,9.47518807 Z M35.4055681,0.24182176 L55.8883397,0.24182176 L55.8883397,19.5884307 L35.4055681,19.5884307 L35.4055681,0.24182176 Z" id="Fill-2" sketch:type="MSShapeGroup"></path>
            <path d="M24.8583441,12.7447323 C24.8583441,14.8475754 22.2487183,14.7224331 22.2487183,14.7224331 L19.6390926,14.7224331 L19.6390926,10.9232169 L22.2487183,10.9232169 C24.9364167,10.9076953 24.8583441,12.7447323 24.8583441,12.7447323 L24.8583441,12.7447323 Z M19.6390926,5.1307783 L21.6273635,5.1307783 C23.6933845,5.24039906 23.6159571,6.781557 23.6159571,6.781557 C23.6159571,8.69684833 21.3321716,8.72789138 21.3321716,8.72789138 L19.6390926,8.72789138 L19.6390926,5.1307783 L19.6390926,5.1307783 Z M24.3770038,9.47518807 C24.3770038,9.47518807 26.1633183,8.71236986 26.1478328,6.6881045 C26.1478328,6.6881045 26.4194739,3.37167231 22.0351478,2.96681923 L17.1691588,2.96681923 L17.1691588,16.871194 L22.7461893,16.871194 C22.7461893,16.871194 27.4063506,16.8867155 27.4063506,12.9474822 C27.4063506,12.9474822 27.5147489,10.2693727 24.3770038,9.47518807 L24.3770038,9.47518807 Z M11.7860193,0.24182176 L32.2684682,0.24182176 L32.2684682,19.5884307 L11.7860193,19.5884307 L11.7860193,0.24182176 Z" id="Fill-3" sketch:type="MSShapeGroup"></path>
            <path d="M75.3293902,3.96343039 L75.3293902,6.53224253 C75.3293902,6.53224253 72.8284854,4.99140796 70.0633596,4.95971818 C70.0633596,4.95971818 64.90605,4.85915164 64.6731226,9.91528793 C64.6731226,9.91528793 64.4866516,14.5672179 70.0014177,14.8320539 C70.0014177,14.8320539 72.3158515,15.112088 75.4539192,13.1036676 L75.4539192,15.7662556 C75.4539192,15.7662556 71.2441274,18.2729816 66.3662016,16.3421688 C66.3662016,16.3421688 62.2651307,14.840138 62.1096307,9.91528793 C62.1099533,9.91528793 61.9386452,4.85139088 67.4069548,3.16956913 C67.4072774,3.16956913 68.867429,2.6088541 71.4925403,2.8578452 C71.4925403,2.8578452 73.0614128,3.01403053 75.3293902,3.96343039 L75.3293902,3.96343039 Z M59.0257621,19.5887541 L79.5082111,19.5887541 L79.5082111,0.242145125 L59.0257621,0.242145125 L59.0257621,19.5887541 Z" id="Fill-4" sketch:type="MSShapeGroup"></path>
        </g>
    </g>
</svg>