<?xml version="1.0" encoding="UTF-8" standalone="no"?>
<svg width="40px" height="40px" viewBox="0 0 40 40" version="1.1" xmlns="http://www.w3.org/2000/svg" xmlns:xlink="http://www.w3.org/1999/xlink" xmlns:sketch="http://www.bohemiancoding.com/sketch/ns">
    <!-- Generator: Sketch 3.3.1 (12005) - http://www.bohemiancoding.com/sketch -->
    <title>logo-linkedin</title>
    <desc>Created with Sketch.</desc>
    <defs></defs>
    <g id="Styles" stroke="none" stroke-width="1" fill="none" fill-rule="evenodd" sketch:type="MSPage">
        <g id="logo-linkedin" sketch:type="MSArtboardGroup" fill="#0038CC">
            <path d="M2.96486607,-0.116723214 L37.0351339,-0.116723214 C38.6663482,-0.116723214 39.9900625,1.17404464 39.9900625,2.76645536 L39.9900625,37.2350089 C39.9900625,38.8259554 38.6663482,40.1167232 37.0351339,40.1167232 L2.96486607,40.1167232 C1.33291964,40.1167232 0.0099375,38.8259554 0.0099375,37.2350089 L0.0099375,2.76645536 C0.0099375,1.17404464 1.33291964,-0.116723214 2.96486607,-0.116723214 Z M9.24299107,13.2046161 C11.3486339,13.2046161 12.6591696,11.8091518 12.6591696,10.0651875 C12.6203661,8.28315179 11.3486339,6.92649107 9.28325893,6.92649107 C7.21788393,6.92649107 5.86708036,8.28315179 5.86708036,10.0651875 C5.86708036,11.8091518 7.17761607,13.2046161 9.20345536,13.2046161 L9.24299107,13.2046161 Z M6.22363393,33.8517768 L12.2616161,33.8517768 L12.2616161,15.6843839 L6.22363393,15.6843839 L6.22363393,33.8517768 Z M15.3849375,33.8517768 L21.4236518,33.8517768 L21.4236518,23.7064732 C21.4236518,23.1632232 21.4624554,22.6207054 21.6220625,22.2334018 C22.0584196,21.1476339 23.0519375,20.0237946 24.7204911,20.0237946 C26.9059375,20.0237946 27.7793839,21.6908839 27.7793839,24.1325804 L27.7793839,33.8517768 L33.8173661,33.8517768 L33.8173661,23.4341161 C33.8173661,17.8544554 30.8382768,15.2582768 26.8649375,15.2582768 C23.6076339,15.2582768 22.1777589,17.0791161 21.3833839,18.3193661 L21.4236518,18.3193661 L21.4236518,15.6843839 L15.3849375,15.6843839 C15.4640089,17.3888125 15.3849375,33.8517768 15.3849375,33.8517768 Z" id="Fill-90" sketch:type="MSShapeGroup"></path>
        </g>
    </g>
</svg>