<?xml version="1.0" encoding="UTF-8" standalone="no"?>
<svg width="125px" height="19px" viewBox="0 0 125 19" version="1.1" xmlns="http://www.w3.org/2000/svg" xmlns:xlink="http://www.w3.org/1999/xlink" xmlns:sketch="http://www.bohemiancoding.com/sketch/ns">
    <!-- Generator: Sketch 3.3.1 (12005) - http://www.bohemiancoding.com/sketch -->
    <title>logo-viacom</title>
    <desc>Created with Sketch.</desc>
    <defs></defs>
    <g id="Styles" stroke="none" stroke-width="1" fill="none" fill-rule="evenodd" sketch:type="MSPage">
        <g id="logo-viacom" sketch:type="MSArtboardGroup" fill="#0038CC">
            <path d="M83.5946582,0.0756940024 C89.7058556,0.0756940024 94.041365,3.37660727 94.041365,9.49821765 C94.041365,15.3555309 90.0164723,18.924306 83.5946582,18.924306 C77.3203034,18.924306 73.1410031,15.5062668 73.1410031,9.49821765 C73.1410031,3.57011962 77.2732091,0.0756940024 83.5946582,0.0756940024 L83.5946582,0.0756940024 Z M83.5946582,15.0306338 C86.8614094,15.0306338 88.779667,12.8113528 88.779667,9.49821765 C88.779667,6.01805083 86.7497212,3.9663107 83.5946582,3.9663107 C80.2694895,3.9663107 78.389319,6.18279095 78.389319,9.49821765 C78.389319,12.6723294 80.2113293,15.0306338 83.5946582,15.0306338 L83.5946582,15.0306338 Z M44.4754805,0.301288661 L34.2009383,0.301288661 L34.2009383,1.72054897 C34.2009383,2.95953724 34.8695234,4.17204488 36.6403218,4.17204488 C37.4298595,4.17204488 43.2011027,4.17637344 43.2011027,4.17637344 C45.9397797,4.17637344 46.9171801,5.05227144 46.9171801,7.22393831 L46.9171801,7.53228496 L39.9742402,7.53228496 C34.8247452,7.53228496 32.923987,9.89313561 32.923987,13.1056952 C32.923987,16.9907102 35.5579242,18.7007483 39.9899383,18.7007483 L44.6072417,18.7007483 C50.6512718,18.7007483 51.941605,15.712001 51.941605,11.7587474 L51.941605,7.18727281 C51.941605,2.93763979 50.3470887,0.301288661 44.4754805,0.301288661 L44.4754805,0.301288661 Z M46.9171801,11.8027969 C46.9171801,13.6589878 46.0450343,15.0792666 43.5407996,15.0792666 L40.9246193,15.0792666 C39.1067266,15.0792666 38.0155792,14.5990504 38.0155792,13.1168986 C38.0155792,11.7029853 39.0218024,11.1524936 40.9246193,11.1524936 L46.9171801,11.1524936 L46.9171801,11.8027969 L46.9171801,11.8027969 Z M66.4065135,4.15854994 L68.9575852,4.15854994 C70.7795954,4.15854994 71.8668826,3.50926508 71.8668826,1.85346139 L71.8668826,0.301288661 L64.6020028,0.301288661 C58.5155106,0.301288661 55.6018383,3.84434699 55.6018383,9.49821765 C55.6018383,16.5550528 60.0426023,18.7007483 64.6020028,18.7007483 L71.8668826,18.7007483 L71.8668826,17.1325344 C71.8668826,15.4996467 70.7306997,14.8404316 69.0826554,14.8404316 L66.4065135,14.8404316 C63.5062232,14.8404316 60.8272505,13.8137976 60.8272505,9.49821765 C60.8272505,5.75146211 62.8577111,4.15854994 66.4065135,4.15854994 L66.4065135,4.15854994 Z M11.5073889,13.6701911 C11.5073889,13.6701911 7.18551879,2.50503784 6.94155471,1.86110004 C6.61086499,0.98163734 6.15664916,0.301288661 4.51786932,0.301288661 L0.788152577,0.301288661 L8.45320558,18.7007483 L14.027579,18.7007483 L21.9386549,0.301288661 L18.6652127,0.301288661 C17.249552,0.301288661 16.7086105,0.900922321 16.3552743,1.77478335 L11.5858794,13.6701911 L11.5073889,13.6701911 L11.5073889,13.6701911 Z M110.952605,13.5041779 C110.952605,13.5041779 107.776955,4.54786623 107.193808,2.85437856 C106.800069,1.71723889 106.261186,0.301288661 103.676402,0.301288661 L97.7641334,0.301288661 L97.7641334,18.7007483 L99.7696314,18.7007483 C101.281282,18.7007483 102.242985,18.0326215 102.242985,16.4908882 L102.242985,3.62868257 L102.323534,3.62868257 L108.059006,18.7007483 L113.429561,18.7007483 L119.167607,3.62868257 L119.2497,3.62868257 L119.2497,16.5015823 C119.2497,17.8070268 119.961005,18.7007483 121.731803,18.7007483 L124.211847,18.7007483 L124.211847,0.301288661 L118.670672,0.301288661 C116.707636,0.301288661 115.502484,0.832429134 114.905956,2.56232768 C114.516591,3.68851863 111.039588,13.5041779 111.039588,13.5041779 L110.952605,13.5041779 L110.952605,13.5041779 Z M24.2506521,0.301288661 L24.2506521,16.5369747 C24.2506521,17.8006613 25.0108524,18.7007483 26.6609555,18.7007483 L29.2727608,18.7007483 L29.2727608,0.301288661 L24.2506521,0.301288661 L24.2506521,0.301288661 Z" id="VIACOM" sketch:type="MSShapeGroup"></path>
        </g>
    </g>
</svg>