<?xml version="1.0" encoding="UTF-8" standalone="no"?>
<svg width="45px" height="36px" viewBox="0 0 45 36" version="1.1" xmlns="http://www.w3.org/2000/svg" xmlns:xlink="http://www.w3.org/1999/xlink" xmlns:sketch="http://www.bohemiancoding.com/sketch/ns">
    <!-- Generator: Sketch 3.3.1 (12005) - http://www.bohemiancoding.com/sketch -->
    <title>logo-medium</title>
    <desc>Created with Sketch.</desc>
    <defs></defs>
    <g id="Styles" stroke="none" stroke-width="1" fill="none" fill-rule="evenodd" sketch:type="MSPage">
        <g id="logo-medium" sketch:type="MSArtboardGroup" fill="#0038CC">
            <path d="M43.17395,5.65789474 C42.5132,5.65789474 41.5787,6.59442105 41.5787,7.19384211 L41.5787,28.9236842 C41.5787,29.5238421 42.5132,30.3421053 43.17395,30.3421053 L44.9537,30.3421053 L44.9537,35.5 L28.8287,35.5 L28.8287,30.3421053 L32.2037,30.3421053 L32.2037,7.5 L32.038325,7.5 L24.15695,35.5 L18.055325,35.5 L10.275575,7.5 L10.0787,7.5 L10.0787,30.3421053 L13.4537,30.3421053 L13.4537,35.5 L-0.0463,35.5 L-0.0463,30.3421053 L1.68245,30.3421053 C2.3942,30.3421053 3.3287,29.5238421 3.3287,28.9236842 L3.3287,7.19384211 C3.3287,6.59442105 2.3942,5.65789474 1.68245,5.65789474 L-0.0463,5.65789474 L-0.0463,0.5 L16.8347,0.5 L22.3772,20.7631579 L22.529825,20.7631579 L28.123325,0.5 L44.9537,0.5 L44.9537,5.65789474 L43.17395,5.65789474 Z" id="Fill-19" sketch:type="MSShapeGroup"></path>
        </g>
    </g>
</svg>