<?xml version="1.0" encoding="UTF-8" standalone="no"?>
<svg width="136px" height="48px" viewBox="0 0 136 48" version="1.1" xmlns="http://www.w3.org/2000/svg" xmlns:xlink="http://www.w3.org/1999/xlink" xmlns:sketch="http://www.bohemiancoding.com/sketch/ns">
    <!-- Generator: Sketch 3.3.1 (12005) - http://www.bohemiancoding.com/sketch -->
    <title>logo-blinkbox</title>
    <desc>Created with Sketch.</desc>
    <defs></defs>
    <g id="Styles" stroke="none" stroke-width="1" fill="none" fill-rule="evenodd" sketch:type="MSPage">
        <g id="logo-blinkbox" sketch:type="MSArtboardGroup" fill="#0038CC">
            <g id="blinkbox" sketch:type="MSLayerGroup">
                <path d="M79.8563231,40.6770162 C76.9511538,40.6770162 75.0155077,42.1849946 75.0155077,44.4731676 C75.0155077,46.5737514 76.7900462,47.9732757 79.4258308,47.9732757 C80.2868154,47.9732757 81.0392615,47.8663784 81.9277077,47.6237838 L81.9277077,45.8732108 C81.3083846,46.5737514 80.5556769,46.8425514 79.7483077,46.8425514 C78.1882308,46.8425514 77.1133077,45.8192432 77.1133077,44.3120432 C77.1133077,42.8305297 78.2149077,41.7545514 79.7757692,41.7545514 C80.6092923,41.7545514 81.2811846,42.0770595 81.8191692,42.6429405 L81.8191692,40.8661622 C81.2550308,40.7579676 80.5556769,40.6770162 79.8563231,40.6770162" id="Fill-1" sketch:type="MSShapeGroup"></path>
                <path d="M58.1774,41.9159351 C59.2538923,41.9159351 60.5451077,42.131027 61.0825692,42.588973 L61.0825692,40.9193514 L53.4443385,40.9193514 L53.4443385,42.588973 C53.9820615,42.131027 55.1383231,41.9421405 56.3759231,41.9421405 L56.3759231,46.5192649 C56.3759231,47.1930811 56.3217846,47.3809297 56.0529231,47.7312 L58.5004,47.7312 C58.2318,47.3809297 58.1774,47.1930811 58.1774,46.5192649 L58.1774,41.9159351" id="Fill-2" sketch:type="MSShapeGroup"></path>
                <path d="M86.6610308,40.7844324 C84.0516615,40.7844324 82.1960462,42.2926703 82.1960462,44.4199784 C82.1960462,46.5192649 83.8638769,47.8928432 86.3116154,47.8928432 C88.9474,47.8928432 90.7760769,46.4388324 90.7760769,44.2848 C90.7760769,42.1849946 89.1087692,40.7844324 86.6610308,40.7844324 M86.4722,46.8700541 C85.0740154,46.8700541 84.1863538,45.7388108 84.1863538,44.3385081 C84.1863538,42.9387243 85.0740154,41.808 86.4722,41.808 C87.8437077,41.808 88.7588308,42.9387243 88.7588308,44.3385081 C88.7588308,45.7388108 87.8437077,46.8700541 86.4722,46.8700541" id="Fill-7" sketch:type="MSShapeGroup"></path>
                <path d="M35.2747385,41.7327568 C35.0840769,41.6572541 34.8452923,41.609773 34.5876769,41.609773 C34.3394769,41.609773 34.1579692,41.6663351 34.0528308,41.7989189 C33.9288615,41.9411027 33.9003538,42.1307676 33.9003538,42.4903784 L33.9003538,43.0775351 L35.0553077,43.0775351 L35.0553077,43.6172108 L33.9003538,43.6172108 L33.9003538,47.6707459 L33.1651692,47.6707459 L33.1651692,43.6172108 L32.4778462,43.6172108 L32.4778462,43.0775351 L33.1651692,43.0775351 L33.1651692,42.4428973 C33.1651692,41.9885838 33.2509538,41.6476541 33.4706462,41.4203676 C33.6900769,41.1928216 34.0243231,41.0794378 34.4728615,41.0794378 C34.7304769,41.0794378 35.0553077,41.1266595 35.2747385,41.2120216 L35.2747385,41.7327568" id="Fill-8" sketch:type="MSShapeGroup"></path>
                <path d="M38.2887077,43.6364108 C38.2411077,43.6268108 38.1359692,43.6172108 38.0405077,43.6172108 C37.6871692,43.6172108 37.4007846,43.7407135 37.2195385,43.9773405 C36.9998462,44.2521081 36.9234769,44.6215784 36.9234769,45.1801946 L36.9234769,47.6707459 L36.1885538,47.6707459 L36.1885538,43.6172108 L35.6539692,43.6172108 L35.6539692,43.0775351 L36.6943692,43.0775351 L36.8280154,43.7311135 C37.0665385,43.2576 37.5056615,42.9924324 38.0310923,42.9924324 C38.1168769,42.9924324 38.2314308,43.0020324 38.2887077,43.0111135 L38.2887077,43.6364108" id="Fill-9" sketch:type="MSShapeGroup"></path>
                <path d="M40.7793385,43.5227676 C39.9774615,43.5227676 39.4907385,44.1003243 39.4907385,45.3789405 C39.4907385,46.6575568 39.9774615,47.225773 40.7793385,47.225773 C41.5812154,47.225773 42.0682,46.6575568 42.0682,45.3789405 C42.0682,44.1003243 41.5812154,43.5227676 40.7793385,43.5227676 L40.7793385,43.5227676 Z M40.7793385,47.7558486 C39.5289231,47.7558486 38.7461385,46.9037838 38.7461385,45.3789405 C38.7461385,43.8540973 39.5289231,42.9924324 40.7793385,42.9924324 C42.0300154,42.9924324 42.8128,43.8540973 42.8128,45.3789405 C42.8128,46.9037838 42.0300154,47.7558486 40.7793385,47.7558486 L40.7793385,47.7558486 Z" id="Fill-10" sketch:type="MSShapeGroup"></path>
                <path d="M50.3519077,47.6707459 L49.6164615,47.6707459 L49.6164615,44.8107243 C49.6164615,44.3468108 49.5782769,44.0720432 49.3779385,43.8540973 C49.2061077,43.6646919 48.9388154,43.5702486 48.6045692,43.5702486 C48.2420769,43.5702486 47.9366,43.6836324 47.736,43.9111784 C47.5163077,44.1571459 47.4496154,44.4884757 47.4496154,45.0190703 L47.4496154,47.6707459 L46.7144308,47.6707459 L46.7144308,44.8107243 C46.7144308,44.3468108 46.6859231,44.0720432 46.4855846,43.8540973 C46.3137538,43.6646919 46.0464615,43.5702486 45.7119538,43.5702486 C45.3494615,43.5702486 45.0437231,43.6836324 44.8433846,43.9111784 C44.6236923,44.1571459 44.5567385,44.4884757 44.5567385,45.0190703 L44.5567385,47.6707459 L43.8218154,47.6707459 L43.8218154,43.6172108 L43.2874923,43.6172108 L43.2874923,43.0775351 L44.3088,43.0775351 L44.4327692,43.6268108 C44.7288308,43.2290595 45.2061385,42.9924324 45.8361846,42.9924324 C46.3804462,42.9924324 47.0008154,43.2007784 47.2586923,43.712173 C47.5163077,43.2672 48.0702462,42.9924324 48.7382154,42.9924324 C49.2921538,42.9924324 49.7312769,43.1815784 49.9985692,43.4755459 C50.2752769,43.7785946 50.3519077,44.214227 50.3519077,44.7253622 L50.3519077,47.6707459" id="Fill-11" sketch:type="MSShapeGroup"></path>
                <path d="M65.9783077,43.5580541 C65.5472923,43.7186595 64.7409692,43.7464216 64.3374154,43.7464216 L63.6914154,43.7464216 L63.6914154,41.9421405 L64.5518769,41.9421405 C65.3325692,41.9421405 66.6499385,42.1037838 67.1607231,42.5617297 L67.1607231,40.9193514 L61.5938769,40.9193514 C61.863,41.2431568 61.9166154,41.4579892 61.9166154,42.1037838 L61.9166154,46.5192649 C61.9166154,47.1930811 61.863,47.3811892 61.6202923,47.7312 L67.5370769,47.7312 L67.5370769,46.0618378 C66.7304923,46.6806486 65.1709385,46.6806486 64.5518769,46.6806486 L63.6914154,46.6806486 L63.6914154,44.7694703 L64.3096923,44.7694703 C64.7409692,44.7694703 65.5198308,44.8229189 65.9783077,44.9850811 L65.9783077,43.5580541" id="Fill-3" sketch:type="MSShapeGroup"></path>
                <path d="M74.2345538,41.1349622 C73.3474154,40.8386595 72.1911538,40.6770162 71.3037538,40.6770162 C69.6898,40.6770162 68.1292,41.1889297 68.1292,42.912 C68.1292,45.8732108 72.9708,44.3125622 72.9708,46.1425297 C72.9708,46.7346162 72.1098154,46.9769514 71.4112462,46.9769514 C70.1739077,46.9769514 69.3129231,46.7613405 68.2369538,46.0618378 L68.2369538,47.5692973 C69.0440615,47.8386162 70.1464462,48 71.3299077,48 C72.9977385,48 74.5575538,47.5155892 74.5575538,45.7655351 C74.5575538,42.6432 69.7428923,44.0422054 69.7428923,42.5347459 C69.7428923,41.9159351 70.5228,41.7003243 71.1957385,41.7003243 C72.3253231,41.7003243 73.5624,42.0500757 74.2345538,42.7228541 L74.2345538,41.1349622" id="Fill-5" sketch:type="MSShapeGroup"></path>
                <path d="M52.3121385,33.2816432 L52.3121385,15.2754162 C52.3121385,14.9075027 52.2266154,14.1299027 51.3800154,14.1299027 L49.2395846,14.1299027 C48.3929846,14.1299027 48.3354462,14.9075027 48.3354462,15.2754162 L48.3401538,19.0692324 C48.3401538,19.0692324 48.3357077,32.0707459 48.3357077,33.2712649 L48.3354462,34.3635892 C48.3354462,34.7317622 48.4207077,35.5093622 49.2675692,35.5093622 L51.4077385,35.5093622 C52.2546,35.5093622 52.3121385,34.7317622 52.3121385,34.3635892 L52.3121385,33.2816432" id="Fill-24" sketch:type="MSShapeGroup"></path>
                <path d="M58.3581231,33.2816432 L58.3581231,21.4715676 C58.3581231,21.1033946 58.2726,20.3257946 57.426,20.3257946 L55.2855692,20.3257946 C54.4389692,20.3257946 54.3814308,21.1033946 54.3814308,21.4715676 L54.3861385,25.2651243 C54.3861385,25.2651243 54.3816923,32.0707459 54.3816923,33.2712649 L54.3814308,34.3635892 C54.3814308,34.7317622 54.4666923,35.5093622 55.3135538,35.5093622 L57.4539846,35.5093622 C58.3005846,35.5093622 58.3581231,34.7317622 58.3581231,34.3635892 L58.3581231,33.2816432" id="Fill-25" sketch:type="MSShapeGroup"></path>
                <path d="M37.1452615,31.3250595 L37.1452615,15.2754162 C37.1452615,14.9075027 37.0597385,14.1299027 36.2128769,14.1299027 L34.0727077,14.1299027 C33.2261077,14.1299027 33.1685692,14.9075027 33.1685692,15.2754162 L33.1732769,19.0692324 C33.1732769,19.0692324 33.1688308,30.1878486 33.1688308,31.3883676 L33.1685692,33.299027 C33.1685692,36.5643243 43.8113538,37.6742919 46.2436615,30.8009514 C47.8450615,26.2759784 45.7851846,21.7912216 43.3510462,20.665427 C40.4097846,19.3050811 38.2667385,20.7144649 38.3347385,21.5717189 C38.3967231,22.3539892 39.1844769,22.1324108 39.9939385,22.4466162 C41.0191692,22.8441081 42.9352,24.2122378 42.5912769,28.5179676 C42.1819692,33.6433297 37.1452615,33.9816649 37.1452615,31.3250595" id="Fill-26" sketch:type="MSShapeGroup"></path>
                <path d="M92.7763231,34.9525622 C93.3396769,35.2006054 94.4096308,35.6370162 95.1707077,35.734573 C98.4851846,36.1600865 102.368769,34.9935568 103.852215,30.8012108 C105.453615,26.2759784 103.393738,21.7912216 100.9596,20.665427 C98.0180769,19.3050811 95.8752923,20.7144649 95.9432923,21.5717189 C96.0050154,22.3539892 96.7927692,22.1324108 97.6024923,22.4463568 C98.6277231,22.8441081 100.543754,24.2122378 100.199831,28.518227 C99.7902615,33.6433297 94.7538154,33.9816649 94.7538154,31.3250595 L94.7538154,15.2754162 C94.7538154,14.9075027 94.6682923,14.1299027 93.8214308,14.1299027 L91.6812615,14.1299027 C90.8346615,14.1299027 90.7768615,14.9075027 90.7768615,15.2754162 L90.7818308,19.0692324 C90.7818308,19.0692324 90.7771231,29.4546162 90.7771231,30.6548757 L90.7768615,31.6662486 C90.7768615,32.3123027 90.5365077,32.6656865 90.1005231,32.7385946 C89.6347231,32.8169514 88.9855846,32.1197838 88.9855846,32.1197838 L85.0852615,28.0781838 C86.5255538,25.6208432 87.9998462,23.1051243 88.8924769,21.5820973 C89.3308154,20.8335568 89.6347231,20.3296865 88.8650154,20.3296865 C88.4779385,20.3296865 86.5995692,20.3151568 86.0404,20.3296865 C85.5884615,20.3413622 85.1480308,20.4505946 84.8051538,21.0105081 L82.5975077,24.7718919 C81.7451538,26.1376865 81.2061231,25.9062486 81.0591385,25.8655135 C80.5739846,25.731373 80.5739846,24.9568865 80.5739846,24.9568865 C80.5739846,20.7671351 80.5687538,15.9632432 80.5687538,15.462227 L80.5687538,15.2754162 C80.5687538,14.9075027 80.4832308,14.1299027 79.6363692,14.1299027 L77.4962,14.1299027 C76.6496,14.1299027 76.5920615,14.9075027 76.5920615,15.2754162 L76.5967692,19.0692324 C76.5967692,19.0692324 76.5923231,32.0707459 76.5923231,33.2710054 L76.5920615,34.3635892 C76.5920615,34.7317622 76.6773231,35.5093622 77.5241846,35.5093622 L79.6643538,35.5093622 C80.5109538,35.5093622 80.5687538,34.7317622 80.5687538,34.3635892 L80.5687538,30.4914162 C80.5687538,30.0220541 80.7092,29.9398054 80.9098,29.9156757 C81.1104,29.891027 81.3452615,30.1255784 81.3452615,30.1255784 L85.2421846,34.067027 C85.2421846,34.067027 86.4897231,35.3282595 87.5923692,35.6380541 C89.7176308,36.2350703 91.2052615,35.0361081 91.4788308,34.9017081 C91.8387077,34.7250162 92.2728615,34.7309838 92.7763231,34.9525622" id="Fill-27" sketch:type="MSShapeGroup"></path>
                <path d="M58.6824308,16.3345297 C58.6824308,15.1168865 57.6875385,14.1299027 56.4601385,14.1299027 C55.2327385,14.1299027 54.2378462,15.1168865 54.2378462,16.3345297 C54.2378462,17.552173 55.2327385,18.5391568 56.4601385,18.5391568 C57.6875385,18.5391568 58.6824308,17.552173 58.6824308,16.3345297" id="Fill-28" sketch:type="MSShapeGroup"></path>
                <path d="M64.4080308,22.2278919 C64.4080308,22.2278919 65.8331538,20.0850162 69.5182308,20.1986595 C74.4461385,20.3507027 74.6705385,24.7843459 74.6705385,26.0922811 L74.6705385,34.3635892 C74.6705385,34.7317622 74.613,35.5093622 73.7664,35.5093622 L71.6259692,35.5093622 C70.7793692,35.5093622 70.6938462,34.7317622 70.6938462,34.3635892 L70.6941077,33.2710054 C70.6941077,32.0707459 70.6988154,26.4627892 70.6988154,26.4627892 C70.6988154,25.4267676 70.7511231,23.4556541 68.3020769,23.2454919 C68.1182154,23.2296649 65.4298615,23.0381838 65.4298615,25.9215568 L65.4298615,34.3635892 C65.4298615,34.7317622 65.3720615,35.5093622 64.5254615,35.5093622 L62.3850308,35.5093622 C61.5384308,35.5093622 61.4529077,34.7317622 61.4529077,34.3635892 L61.4534308,33.2710054 C61.4534308,32.0707459 61.4578769,25.2651243 61.4578769,25.2651243 C61.4578769,25.2651243 61.4557846,24.5189189 61.4557846,24.1177946 C61.4557846,22.7865081 60.2642154,23.3510919 59.908,23.1398919 C59.7152462,23.0254703 59.7126308,22.7813189 59.7126308,22.7813189 L59.6909231,20.8911568 C59.7217846,20.5157189 60.0411231,20.3257946 60.6272308,20.3257946 L61.9511385,20.3257946 C62.3172923,20.3257946 63.5564615,20.2313514 64.4080308,22.2278919" id="Fill-29" sketch:type="MSShapeGroup"></path>
                <path d="M135.050354,31.6055351 C134.485169,31.776 134.105415,32.5162378 133.078354,32.5559351 C132.051554,32.5956324 131.468846,31.6706595 131.1346,31.1462919 L130.798785,30.6201081 C130.798785,30.6201081 129.936492,29.2683243 128.914138,27.6661622 C130.277538,25.3395892 131.6412,23.0124973 132.484923,21.5724973 C132.923523,20.8242162 133.227431,20.3200865 132.457723,20.3200865 C132.070646,20.3200865 130.192277,20.3055568 129.633369,20.3200865 C129.181169,20.3317622 128.740738,20.4412541 128.397862,21.0009081 L126.607892,24.0508541 C126.138954,23.3155459 125.782215,22.7561514 125.653277,22.5542919 L125.396708,22.1518703 C124.166431,20.4181622 123.515462,20.2840216 121.685215,20.3143784 L121.513123,20.3117838 C121.513123,20.3117838 113.558954,20.3296865 112.815923,20.3296865 C108.853877,20.3296865 105.641923,23.7945081 105.641923,28.0683243 C105.641923,32.3421405 108.853877,35.8069622 112.815923,35.8069622 C116.777969,35.8069622 120.117292,32.271827 119.646,28.0683243 C119.375831,25.6584649 117.497462,24.2511568 116.581554,24.2999351 C115.788569,24.342227 115.395738,24.7443892 115.731292,25.8818595 C115.898415,26.4472216 116.059,27.2575135 116.059,28.0947892 C116.059,30.8411676 114.614262,33.0675892 112.831877,33.0675892 C111.049754,33.0675892 109.604754,30.8411676 109.604754,28.0947892 C109.604754,25.3484108 110.961092,23.1196541 113.147554,23.1196541 L118.846477,23.1196541 C118.846477,23.1196541 120.159923,23.113427 120.906615,23.3830054 C121.807877,23.7083676 122.436877,24.7968 122.436877,24.7968 L124.327015,27.6864 L124.281246,27.7580108 C122.840954,30.2156108 121.366923,32.7310703 120.474292,34.2543568 C120.035692,35.0026378 119.731785,35.5067676 120.501754,35.5067676 C120.888831,35.5067676 122.7672,35.5212973 123.326108,35.5067676 C123.778046,35.4948324 124.218738,35.3858595 124.561615,34.8259459 L126.682954,31.2111568 C127.967631,33.0647351 128.845354,34.6539243 130.439692,35.5132541 C130.439692,35.5132541 132.274123,36.5612108 134.460585,34.505773 C136.731262,32.3714595 135.615538,31.4348108 135.050354,31.6055351" id="Fill-31" sketch:type="MSShapeGroup"></path>
                <path d="M11.8408923,11.2942703 L11.8408923,0.675113514 C11.8408923,0.10092973 11.4308,-0.133881081 10.9296923,0.153081081 L0.9112,5.88998919 C0.410092308,6.17695135 0,6.88138378 0,7.45530811 L0,33.2782703 C0,33.8521946 0.410092308,34.5568865 0.9112,34.8438486 L11.1567077,40.7120432 C11.6575538,40.9990054 12.4777385,40.9990054 12.9788462,40.7120432 L23.2243538,34.8438486 C23.7254615,34.5568865 24.1352923,33.8521946 24.1352923,33.2782703 L24.1352923,21.5418811 C24.1352923,20.9676973 23.7254615,20.2632649 23.2243538,19.9763027 L11.8408923,13.4542703 L11.8408923,11.2942703" id="Fill-13" sketch:type="MSShapeGroup"></path>
            </g>
        </g>
    </g>
</svg>