<?xml version="1.0" encoding="UTF-8" standalone="no"?>
<svg width="44px" height="33px" viewBox="0 0 44 33" version="1.1" xmlns="http://www.w3.org/2000/svg" xmlns:xlink="http://www.w3.org/1999/xlink" xmlns:sketch="http://www.bohemiancoding.com/sketch/ns">
    <!-- Generator: Sketch 3.3.1 (12005) - http://www.bohemiancoding.com/sketch -->
    <title>logo-twitter</title>
    <desc>Created with Sketch.</desc>
    <defs></defs>
    <g id="Styles" stroke="none" stroke-width="1" fill="none" fill-rule="evenodd" sketch:type="MSPage">
        <g id="logo-twitter" sketch:type="MSArtboardGroup" fill="#0038CC">
            <path d="M38.3741255,5.14529157 C40.2131503,4.12911646 41.6235384,2.5187161 42.285977,0.603712879 C40.5660179,1.54398695 38.664213,2.22509892 36.6341417,2.59212039 C35.0143061,0.9976992 32.7001007,0 30.1396455,0 C25.228724,0 21.2443506,3.67920306 21.2443506,8.21179347 C21.2443506,8.85645296 21.3201198,9.4801398 21.4732816,10.0813559 C14.0787566,9.73730451 7.52418632,6.47306043 3.1328245,1.50004424 C2.36701517,2.71845568 1.92809547,4.12911646 1.92809547,5.63365484 C1.92809547,8.47794646 3.49922233,10.9941658 5.88703208,12.4667459 C4.42901769,12.4252999 3.05543176,12.0537843 1.85449118,11.4415825 L1.85449118,11.542451 C1.85449118,15.5217627 4.92151699,18.8409352 8.99464849,19.5934541 C8.24724022,19.7862028 7.4619474,19.8825771 6.64905296,19.8825771 C6.07591368,19.8825771 5.5168458,19.8341403 4.97617899,19.7377659 C6.10676253,22.9975158 9.39243638,25.3739175 13.286428,25.4378342 C10.2415918,27.639963 6.40388573,28.9517527 2.23604283,28.9517527 C1.51785979,28.9517527 0.808336088,28.9153002 0.113425,28.8393992 C4.0512545,31.1678634 8.72837415,32.5280899 13.7529493,32.5280899 C30.1217857,32.5280899 39.0690365,20.0179007 39.0690365,9.16355256 C39.0690365,8.80801611 39.0614596,8.45247966 39.0457646,8.1019367 C40.7846659,6.94344714 42.2951775,5.49833128 43.4842115,3.85147844 C41.8898127,4.50512622 40.1731009,4.94555199 38.3741255,5.14529157 Z" id="Imported-Layers-5" sketch:type="MSShapeGroup"></path>
        </g>
    </g>
</svg>