<?xml version="1.0" encoding="UTF-8" standalone="no"?>
<svg width="101px" height="57px" viewBox="0 0 101 57" version="1.1" xmlns="http://www.w3.org/2000/svg" xmlns:xlink="http://www.w3.org/1999/xlink" xmlns:sketch="http://www.bohemiancoding.com/sketch/ns">
    <!-- Generator: Sketch 3.3.1 (12005) - http://www.bohemiancoding.com/sketch -->
    <title>logo-radio3</title>
    <desc>Created with Sketch.</desc>
    <defs></defs>
    <g id="Styles" stroke="none" stroke-width="1" fill="none" fill-rule="evenodd" sketch:type="MSPage">
        <g id="logo-radio3" sketch:type="MSArtboardGroup" fill="#0038CC">
            <path d="M45.5663617,28.4786752 C45.60731,13.2651993 57.8603273,1.00998351 72.9715341,1.02080298 C87.9036462,1.03118968 100.312913,13.177778 100.288776,28.5323398 C100.264853,43.7607465 87.9853273,56.0005987 72.8795083,55.9791761 C57.9726117,55.9581863 45.5924393,43.8375647 45.5663617,28.4786752 L45.5663617,28.4786752 Z M75.6739048,28.354684 C76.088991,28.8813759 76.4993359,29.3868617 76.8933014,29.9046816 C77.6659307,30.9201972 78.3308014,31.9976002 78.7689479,33.2070008 C79.2872669,34.6375514 79.400629,36.1243632 79.3717497,37.6263223 C79.3478273,38.8632043 79.1547238,40.074336 78.6374824,41.2118953 C77.8081721,43.0358419 76.3614048,44.1959056 74.563991,44.9463442 C72.4114048,45.8450095 70.1741204,46.044737 67.888991,45.6149876 C66.3157152,45.3191832 64.870241,44.7156731 63.6659307,43.6250703 C63.3088186,43.3015681 62.9982583,42.9263488 62.6245514,42.5305725 C63.1848962,42.6439606 63.6558014,42.7727123 64.1353273,42.8296227 C65.1445945,42.9490697 66.1379135,42.8854512 67.0665773,42.4104764 C68.2616204,41.799609 68.8874824,40.5558025 68.65106,39.2310664 C68.4939479,38.3507941 67.9773531,37.6918883 67.2726117,37.1902976 C65.8234738,36.1592019 64.206879,35.804756 62.4676548,36.1518447 C60.7633445,36.4920089 59.6504135,37.668951 59.3848962,39.3347169 C59.1607583,40.7414646 59.4553704,42.0400177 60.256879,43.2100354 C61.3478273,44.8026616 62.8129135,45.9865282 64.4732583,46.9200323 C66.3967497,48.0015467 68.5079566,48.465702 70.6864048,48.6336202 C73.063129,48.8169021 75.4081721,48.5847162 77.7105428,47.9669244 C79.8566635,47.3908957 81.8741204,46.5279346 83.5937324,45.0835351 C86.7092497,42.466954 88.1366204,39.1449434 87.23856,35.1125262 C86.2174393,30.5287487 83.3333876,27.5609676 78.8402841,26.2024747 C78.7340341,26.1702327 78.5685169,26.2122122 78.4743359,26.2805913 C77.6275686,26.8951373 76.7904997,27.5235322 75.950629,28.1478157 C75.8620514,28.2135981 75.7739048,28.2798133 75.6739048,28.354684 L75.6739048,28.354684 Z M69.0665773,28.8608189 C69.4480428,29.253133 69.8172238,29.6227261 70.1734738,30.0046535 C70.2924393,30.1323233 70.388991,30.1251824 70.5273531,30.0453347 C70.9723962,29.7884804 71.4249824,29.5439604 71.8730428,29.2916503 C74.16981,27.9991562 76.4170083,26.6311422 78.4243359,24.9039217 C79.7930859,23.7265467 81.01981,22.422584 81.8816635,20.8152432 C83.0430859,18.6487522 83.2941635,16.3972201 82.3777841,14.0831514 C81.63856,12.2167925 80.2456721,10.9491832 78.4917928,10.0652323 C76.2825255,8.95190867 73.9292928,8.61044614 71.4805859,8.80692775 C69.6019221,8.9575348 67.8575255,9.51603594 66.2683014,10.5309024 C64.7808014,11.4806356 63.6840341,12.7501925 63.2103273,14.4927766 C62.6611893,16.5125556 63.3904997,18.2049374 65.2407152,19.1245925 C66.7243359,19.8622641 68.2747669,19.9769505 69.8562324,19.4667042 C70.8180859,19.1564018 71.5230428,18.537528 71.95106,17.6122468 C72.6874824,16.0196205 72.0805859,14.3698674 70.4848962,13.6531856 C69.5562324,13.2362032 68.5799393,13.1860008 67.5894221,13.3394209 C67.1721807,13.4041214 66.7616204,13.5090702 66.3107583,13.6036324 C66.6019221,13.0124565 66.9801548,12.5296916 67.4723962,12.1462496 C69.0316635,10.9314393 70.7954566,10.6222187 72.6898531,11.0456929 C74.1991204,11.383044 75.3872669,12.1932061 76.013129,13.6614084 C76.6206721,15.0871984 76.7445945,16.586128 76.5221807,18.1134047 C76.2689479,19.8531758 75.5814479,21.426327 74.6521376,22.9003719 C73.2279997,25.1590448 71.3868359,27.0299479 69.3004135,28.6706126 C69.2215341,28.7329328 69.144379,28.7976332 69.0665773,28.8608189 L69.0665773,28.8608189 Z M87.9478273,19.8375957 C87.95106,18.7705794 87.2275686,18.0117017 86.2090341,18.0136492 C85.1894221,18.0155967 84.4439479,18.771445 84.4308014,19.816606 C84.4176548,20.8715045 85.1648531,21.6433656 86.2012755,21.6453131 C87.2359738,21.6472606 87.944379,20.9139168 87.9478273,19.8375957 L87.9478273,19.8375957 Z M87.9478273,13.7490461 C87.9532152,12.682679 87.2316635,11.9220701 86.2137755,11.9212045 C85.1866204,11.9201226 84.4271376,12.6969607 84.4308014,13.7442856 C84.4344652,14.7944235 85.1713186,15.5483243 86.1965341,15.5513538 C87.2320945,15.5543832 87.9424393,14.8236361 87.9478273,13.7490461 L87.9478273,13.7490461 Z" id="Fill-1" sketch:type="MSShapeGroup"></path>
            <path d="M37.3715341,13.1712863 L26.3008445,13.1712863 L26.3008445,2.70647671 L37.3715341,2.70647671 L37.3715341,13.1712863 L37.3715341,13.1712863 Z M35.1907152,9.7462743 C35.1376979,9.7503857 35.1187324,9.74649069 35.1058014,9.75384793 C35.0234738,9.7995061 34.9433014,9.84905928 34.8611893,9.89493384 C33.9271376,10.4170816 32.9409307,10.7182957 31.8596807,10.5824031 C30.9904997,10.4731264 30.2400686,10.1338278 29.7469652,9.36910751 C28.6904997,7.73039029 29.7792928,5.5584895 31.7624824,5.31050721 C32.8258445,5.17764409 33.8008445,5.42692472 34.7338186,5.9129354 C34.8504135,5.97352444 34.9676548,6.03281515 35.1023531,6.10205977 L35.1023531,4.69790871 C34.7801548,4.58581898 34.4603273,4.4644245 34.1344652,4.36337064 C32.8861893,3.97581715 31.6348962,3.92431647 30.4126979,4.44040528 C28.9532152,5.05689878 28.0866204,6.16264881 27.9808014,7.76219954 C27.8808014,9.27476171 28.5527841,10.4568972 29.8473962,11.1900246 C31.5678704,12.1642099 33.338129,11.9640497 35.0799393,11.1789888 C35.1325255,11.1551859 35.1844652,11.0627876 35.1859738,11.001333 C35.195241,10.5893275 35.1907152,10.1771057 35.1907152,9.7462743 L35.1907152,9.7462743 Z" id="Fill-2" sketch:type="MSShapeGroup"></path>
            <path d="M24.5842497,13.1708535 L13.5146376,13.1708535 L13.5146376,2.70712588 L24.5842497,2.70712588 L24.5842497,13.1708535 L24.5842497,13.1708535 Z M16.4133445,11.7028676 C16.4633445,11.7100084 16.4963186,11.7190968 16.5290773,11.7188804 C17.5060169,11.7188804 18.4842497,11.7448471 19.4596807,11.7041659 C19.8786462,11.6868548 20.3118359,11.5821223 20.7032152,11.4274038 C21.45731,11.129652 21.9081721,10.551243 21.9499824,9.7216059 C21.9930859,8.86210705 21.5624824,8.26941638 20.8178704,7.88770541 C20.6762755,7.81499856 20.5273531,7.7567898 20.3654997,7.68473212 C20.4122669,7.64924425 20.4361893,7.62500864 20.4652841,7.60986138 C21.5152841,7.0602322 21.5851117,5.37152903 20.4680859,4.6221724 C20.0359738,4.33242695 19.5566635,4.1837674 19.0409307,4.17662655 C18.2183014,4.16559069 17.3954566,4.1714332 16.5728273,4.1714332 C16.5234738,4.1714332 16.4745514,4.1818199 16.4133445,4.18874436 L16.4133445,11.7028676 L16.4133445,11.7028676 Z" id="Fill-3" sketch:type="MSShapeGroup"></path>
            <path d="M0.711189319,13.1708535 L0.711189319,2.71058811 L11.7915773,2.71058811 L11.7915773,13.1708535 L0.711189319,13.1708535 L0.711189319,13.1708535 Z M3.62519794,11.7100084 C4.69459449,11.7100084 5.73899104,11.7290507 6.78231001,11.702002 C7.30623242,11.6883695 7.81269794,11.5399264 8.26420656,11.2506137 C9.39955139,10.5226796 9.47541346,8.93113529 8.40278415,8.12811408 C8.16054277,7.94699612 7.87519794,7.82387053 7.59825828,7.66763736 C7.67455139,7.61310722 7.75558587,7.5561968 7.83554277,7.49798804 C8.13856001,7.27770359 8.33856001,6.9886073 8.42368932,6.62052886 C8.66377553,5.58337429 8.13317208,4.67172558 7.05903415,4.32939749 C6.76205139,4.23483531 6.44006863,4.18549852 6.12821518,4.1777085 C5.29933587,4.15736789 4.46981001,4.17078404 3.62519794,4.17078404 L3.62519794,11.7100084 L3.62519794,11.7100084 Z" id="Fill-4" sketch:type="MSShapeGroup"></path>
            <path d="M1.93791346,20.7338808 L1.93791346,24.4471236 L0.722611733,24.4471236 L0.722611733,15.8205422 C0.737266905,15.8118866 0.751491043,15.7963066 0.765499664,15.796523 C1.7234738,15.8140505 2.69114622,15.7549762 3.63769794,15.8690135 C5.14265484,16.0505642 5.98166346,17.3419764 5.64394794,18.8032542 C5.49976691,19.4264558 5.1284307,19.8780606 4.57929277,20.1896614 C4.49243932,20.2389982 4.40364622,20.2848727 4.28899104,20.3467601 C5.11679277,20.9362049 5.5859738,21.7801237 6.10235311,22.5892038 C6.48511173,23.188819 6.88920656,23.775018 7.31054277,24.4075243 C7.3708876,24.2766087 7.41054277,24.195679 7.44567208,24.1128019 C8.59524104,21.4118289 9.74674966,18.7117215 10.8887755,16.0077191 C10.9743359,15.805395 11.0762755,15.7489173 11.2956721,15.7242489 C11.7499824,15.6729646 11.9532152,15.8443451 12.1357583,16.26717 C13.2786462,18.9146948 14.4588186,21.5462068 15.62606,24.1833448 C15.6598962,24.2597303 15.6900686,24.3380633 15.7392066,24.4575103 C15.3282152,24.4575103 14.9473962,24.4663822 14.5678704,24.4488547 C14.5070945,24.4460416 14.431879,24.3350338 14.3965341,24.258432 C14.070241,23.548891 13.7467497,22.8378353 13.4329566,22.1226682 C13.3626979,21.9623236 13.2838186,21.8898332 13.09481,21.8917807 C12.0239048,21.9026002 10.9525686,21.9023838 9.88166346,21.8917807 C9.70149104,21.8900496 9.62886173,21.9571303 9.56506863,22.1109832 C9.27239622,22.8164128 8.96356001,23.5153506 8.67261173,24.2216458 C8.60127553,24.3943245 8.51830139,24.4687625 8.31873242,24.4650839 C7.5909307,24.4518841 6.86226691,24.4564283 6.13446518,24.466815 C5.96011173,24.4691953 5.85795656,24.4157471 5.76226691,24.2660056 C5.26830139,23.4917642 4.76356001,22.7240145 4.25687897,21.9577795 C4.15299966,21.8006807 4.02519794,21.6598112 3.9096807,21.5105025 C3.41808587,20.873452 2.79394794,20.5594709 1.93791346,20.7338808 L1.93791346,20.7338808 Z M1.94610311,19.5433061 C2.37519794,19.5433061 2.78532725,19.5638631 3.19179277,19.5346505 C3.39825828,19.5199361 3.61226691,19.442685 3.79890484,19.3466081 C4.26032725,19.1090125 4.42821518,18.6933284 4.42756863,18.1917377 C4.42670656,17.7117859 4.28144794,17.3056229 3.83123242,17.0749518 C3.23101691,16.7676788 2.58726691,16.8717621 1.94610311,16.853369 L1.94610311,19.5433061 L1.94610311,19.5433061 Z M12.8262755,20.783434 C12.3525686,19.7174996 11.9012755,18.701984 11.4310169,17.6436232 C10.9939479,18.7063118 10.5754135,19.7239913 10.1467497,20.7663392 C10.2342497,20.7743456 10.2836031,20.7827848 10.3325255,20.7830012 C11.1441635,20.7836504 11.9560169,20.783434 12.8262755,20.783434 L12.8262755,20.783434 Z" id="Fill-5" sketch:type="MSShapeGroup"></path>
            <path d="M33.5226117,15.6656074 C35.3053704,15.715377 36.8008445,16.3963545 37.650629,18.1082114 C38.9525686,20.7304186 37.519379,24.1474242 34.0933014,24.5280532 C32.8105428,24.6706538 31.6023531,24.4527497 30.5711031,23.6456171 C29.0896376,22.4857697 28.5551548,20.9256018 28.9596807,19.1068486 C29.356879,17.3216357 30.5372669,16.2457475 32.2941635,15.8010672 C32.47606,15.7549762 32.66356,15.7253309 32.8504135,15.7049903 C33.0545083,15.6827021 33.2607583,15.6798891 33.5226117,15.6656074 L33.5226117,15.6656074 Z M33.4864048,16.8213434 C31.550629,16.8167992 30.1277841,18.1995277 30.1195945,20.0929353 C30.1111893,21.999759 31.5353273,23.422736 33.4592497,23.4300932 C35.3851117,23.4374504 36.8379135,22.0239946 36.8473962,20.1334001 C36.856879,18.2335008 35.4284307,16.8258875 33.4864048,16.8213434 L33.4864048,16.8213434 Z" id="Fill-6" sketch:type="MSShapeGroup"></path>
            <path d="M16.8004135,15.8047458 C16.8489048,15.7982541 16.881879,15.7898149 16.9146376,15.7898149 C18.1310169,15.7924116 19.3493359,15.7508648 20.563129,15.8099391 C22.1219652,15.8858918 23.3853273,16.5478271 24.1734738,17.9543585 C25.6598962,20.6068602 24.0674393,23.8994419 21.0741204,24.3683578 C20.6950255,24.4276485 20.307741,24.4505858 19.9236893,24.4553464 C18.9814479,24.4676806 18.0392066,24.4594578 17.0969652,24.4594578 L16.8004135,24.4594578 L16.8004135,15.8047458 L16.8004135,15.8047458 Z M18.0383445,23.2883581 C18.9305859,23.2883581 19.806879,23.3515438 20.6706721,23.2747256 C22.2812324,23.1312594 23.4122669,21.83249 23.4469652,20.1931236 C23.4829566,18.4918698 22.4829566,17.2143066 20.8342497,16.9996483 C19.931879,16.8821488 19.007741,16.9323512 18.0935169,16.9083319 C18.0790773,16.9078991 18.0642066,16.9245611 18.0383445,16.9401412 L18.0383445,23.2883581 L18.0383445,23.2883581 Z" id="Fill-7" sketch:type="MSShapeGroup"></path>
            <path d="M27.3848962,24.4479891 L26.1833876,24.4479891 L26.1833876,15.8069097 L27.3848962,15.8069097 L27.3848962,24.4479891" id="Fill-8" sketch:type="MSShapeGroup"></path>
            <path d="M17.7730428,10.5239779 L17.7730428,8.46589799 C18.4351117,8.50354976 19.0814479,8.51934618 19.7219652,8.58945636 C19.92606,8.61174447 20.1415773,8.74698787 20.3051548,8.88590989 C20.7144221,9.23343133 20.6683014,9.95141149 20.2105428,10.2515436 C20.0032152,10.3872198 19.7433014,10.4956309 19.5004135,10.5118601 C18.9329566,10.5495119 18.3614048,10.5239779 17.7730428,10.5239779" id="Fill-9" sketch:type="MSShapeGroup"></path>
            <path d="M17.7732583,7.28116582 L17.7732583,5.33625755 C18.2622669,5.36525373 18.7407152,5.36373901 19.2096807,5.43060334 C19.6126979,5.48794655 19.8521376,5.7798559 19.888129,6.13538374 C19.9359738,6.61035856 19.7616204,6.9496572 19.3743359,7.13596851 C19.0336031,7.29977531 18.2303704,7.37507884 17.7732583,7.28116582" id="Fill-10" sketch:type="MSShapeGroup"></path>
            <path d="M4.97627553,10.5233288 L4.97627553,8.46135381 C5.65106001,8.5046317 6.32045656,8.49208112 6.96808587,8.60438723 C7.59610311,8.71301473 7.86571518,9.17240951 7.75731001,9.72225507 C7.70623242,9.98170601 7.57325828,10.1935513 7.33899104,10.3080213 C7.1422238,10.4040982 6.92498242,10.5032046 6.71248242,10.5135912 C6.14265484,10.5419383 5.57067208,10.5233288 4.97627553,10.5233288" id="Fill-11" sketch:type="MSShapeGroup"></path>
            <path d="M4.97368932,7.31600452 L4.97368932,5.32890031 C5.48446518,5.36655207 5.98834449,5.36763402 6.4784307,5.45116034 C6.87498242,5.51867385 7.06549966,5.80084567 7.0922238,6.17714691 C7.12476691,6.63567613 6.96183587,6.95614888 6.58683587,7.13120794 C6.07821518,7.36858715 5.53640484,7.30843089 4.97368932,7.31600452" id="Fill-12" sketch:type="MSShapeGroup"></path>
        </g>
    </g>
</svg>