<?xml version="1.0" encoding="UTF-8" standalone="no"?>
<svg width="101px" height="29px" viewBox="0 0 101 29" version="1.1" xmlns="http://www.w3.org/2000/svg" xmlns:xlink="http://www.w3.org/1999/xlink" xmlns:sketch="http://www.bohemiancoding.com/sketch/ns">
    <!-- Generator: Sketch 3.3.1 (12005) - http://www.bohemiancoding.com/sketch -->
    <title>logo-bbc</title>
    <desc>Created with Sketch.</desc>
    <defs></defs>
    <g id="Styles" stroke="none" stroke-width="1" fill="none" fill-rule="evenodd" sketch:type="MSPage">
        <g id="logo-bbc" sketch:type="MSArtboardGroup" fill="#0038CC">
            <path d="M54.6715293,18.6689913 C54.6715293,21.7668202 50.8264563,21.5825876 50.8264563,21.5825876 L46.9813832,21.5825876 L46.9813832,15.9849838 L50.8264563,15.9849838 C54.7865971,15.9620897 54.6715293,18.6689913 54.6715293,18.6689913 L54.6715293,18.6689913 Z M46.9813832,7.4508896 L49.9110858,7.4508896 C52.9552097,7.6122281 52.8403575,9.88284619 52.8403575,9.88284619 C52.8403575,12.7046502 49.4762418,12.7504383 49.4762418,12.7504383 L46.9813832,12.7504383 L46.9813832,7.4508896 L46.9813832,7.4508896 Z M53.9623758,13.8512983 C53.9623758,13.8512983 56.5944968,12.7275443 56.5714402,9.74504971 C56.5714402,9.74504971 56.9715915,4.8588904 50.5116361,4.26256427 L43.3420961,4.26256427 L43.3420961,24.7486668 L51.5593129,24.7486668 C51.5593129,24.7486668 58.4256687,24.7713449 58.4256687,18.9674783 C58.4256687,18.9674783 58.5855569,15.0217044 53.9623758,13.8512983 L53.9623758,13.8512983 Z M35.4108248,0.247676084 L65.5891752,0.247676084 L65.5891752,28.7523239 L35.4108248,28.7523239 L35.4108248,0.247676084 Z" id="Fill-1" sketch:type="MSShapeGroup"></path>
            <path d="M19.8706444,18.6689913 C19.8706444,21.7668202 16.0255714,21.5825876 16.0255714,21.5825876 L12.1802828,21.5825876 L12.1802828,15.9849838 L16.0255714,15.9849838 C19.9854967,15.9620897 19.8706444,18.6689913 19.8706444,18.6689913 L19.8706444,18.6689913 Z M12.1802828,7.4508896 L15.1102009,7.4508896 C18.1541093,7.6122281 18.0399035,9.88284619 18.0399035,9.88284619 C18.0399035,12.7046502 14.6751414,12.7504383 14.6751414,12.7504383 L12.1802828,12.7504383 L12.1802828,7.4508896 L12.1802828,7.4508896 Z M19.1614909,13.8512983 C19.1614909,13.8512983 21.7933964,12.7275443 21.7705553,9.74504971 C21.7705553,9.74504971 22.1709221,4.8588904 15.7109666,4.26256427 L8.5412112,4.26256427 L8.5412112,24.7486668 L16.7582125,24.7486668 C16.7582125,24.7486668 23.6245683,24.7713449 23.6245683,18.9674783 C23.6245683,18.9674783 23.784241,15.0217044 19.1614909,13.8512983 L19.1614909,13.8512983 Z M0.609939945,0.247676084 L30.7882902,0.247676084 L30.7882902,28.7523239 L0.609939945,28.7523239 L0.609939945,0.247676084 Z" id="Fill-2" sketch:type="MSShapeGroup"></path>
            <path d="M94.2332887,5.73059349 L94.2332887,9.5156769 C94.2332887,9.5156769 90.5485348,7.24505881 86.4741881,7.1986227 C86.4741881,7.1986227 78.8756221,7.05024311 78.5321427,14.500108 C78.5321427,14.500108 78.2576178,21.3540787 86.382608,21.7439261 C86.382608,21.7439261 89.7930525,22.1566676 94.416449,19.1974991 L94.416449,23.1208109 C94.416449,23.1208109 88.2137799,26.8136701 81.0267858,23.968972 C81.0267858,23.968972 74.9846513,21.7562371 74.7553777,14.500108 C74.7553777,14.500108 74.5036939,7.03879607 82.5603761,4.56105131 C82.5603761,4.56105131 84.7121862,3.73492041 88.5801004,4.1020897 C88.5801004,4.1020897 90.8915832,4.33189447 94.2332887,5.73059349 L94.2332887,5.73059349 Z M70.2119252,28.7523239 L100.39006,28.7523239 L100.39006,0.247676084 L70.2119252,0.247676084 L70.2119252,28.7523239 Z" id="Fill-3" sketch:type="MSShapeGroup"></path>
        </g>
    </g>
</svg>