<?xml version="1.0" encoding="UTF-8" standalone="no"?>
<svg width="37px" height="37px" viewBox="0 0 37 37" version="1.1" xmlns="http://www.w3.org/2000/svg" xmlns:xlink="http://www.w3.org/1999/xlink" xmlns:sketch="http://www.bohemiancoding.com/sketch/ns">
    <!-- Generator: Sketch 3.3.1 (12005) - http://www.bohemiancoding.com/sketch -->
    <title>logo-dribbble</title>
    <desc>Created with Sketch.</desc>
    <defs></defs>
    <g id="Styles" stroke="none" stroke-width="1" fill="none" fill-rule="evenodd" sketch:type="MSPage">
        <g id="logo-dribbble" sketch:type="MSArtboardGroup" fill="#0038CC">
            <path d="M18.2030177,36.5664013 C8.24020592,36.5664013 0.134831461,28.471661 0.134831461,18.5216102 C0.134831461,8.57226837 8.24020592,0.47752809 18.2030177,0.47752809 C28.1665385,0.47752809 36.2719129,8.57226837 36.2719129,18.5216102 C36.2719129,28.471661 28.1665385,36.5664013 18.2030177,36.5664013 L18.2030177,36.5664013 Z M33.4418023,20.9922854 C32.9136379,20.8256832 28.6642182,19.5602154 23.8285006,20.3329661 C25.8468686,25.8726666 26.6685365,30.3843961 26.8266314,31.322331 C30.2891214,28.9842286 32.7534162,25.2806971 33.4418023,20.9922854 L33.4418023,20.9922854 Z M24.2318907,32.7331327 C24.0021923,31.3811735 23.1060851,26.6681035 20.9395475,21.0454564 C20.9055182,21.0567995 20.8714888,21.0674337 20.8374594,21.0794857 C12.132317,24.1088101 9.00799395,30.137683 8.73008729,30.7048395 C11.3468053,32.742349 14.6356037,33.9581906 18.2030177,33.9581906 C20.3411975,33.9581906 22.378707,33.5214801 24.2318907,32.7331327 L24.2318907,32.7331327 Z M6.73724136,28.8509468 C7.08675151,28.2533057 11.3227012,21.2496327 19.2820328,18.6797051 C19.4833734,18.615191 19.6861318,18.5542217 19.8903081,18.4967971 C19.5032239,17.6212494 19.0814013,16.7442837 18.6390192,15.880788 C10.9320722,18.1848611 3.45340557,18.0884445 2.77778047,18.0742656 C2.77281785,18.2309425 2.76998207,18.3876195 2.76998207,18.5457143 C2.76998207,22.5037573 4.27223768,26.1186707 6.73724136,28.8509468 L6.73724136,28.8509468 Z M3.09609702,15.3887798 C3.78590104,15.3979961 10.1444337,15.425645 17.3636262,13.5107831 C14.8064596,8.97140471 12.0486614,5.15444188 11.6417267,4.59721067 C7.32424827,6.63117545 4.09641919,10.6062331 3.09609702,15.3887798 L3.09609702,15.3887798 Z M14.5866865,3.56073228 C15.0127627,4.13143345 17.8159334,7.94343366 20.3454512,12.5841912 C25.8333987,10.529667 28.1566132,7.41101556 28.4338109,7.01613289 C25.7086242,4.60146435 22.1249045,3.13252917 18.2030177,3.13252917 C16.9581093,3.13252917 15.7472303,3.28140774 14.5866865,3.56073228 L14.5866865,3.56073228 Z M30.1494592,8.798422 C29.8247621,9.23796824 27.2378198,12.5494529 21.532226,14.8755032 C21.8909525,15.6099708 22.2355,16.3564905 22.5559434,17.1079728 C22.6693747,17.3745363 22.7799702,17.6396819 22.8884389,17.9034097 C28.0233315,17.2589782 33.1263215,18.2926208 33.6346355,18.3996716 C33.601315,14.762072 32.2989821,11.4215205 30.1494592,8.798422 L30.1494592,8.798422 Z" id="Imported-Layers-2" sketch:type="MSShapeGroup"></path>
        </g>
    </g>
</svg>