<?xml version="1.0" encoding="UTF-8" standalone="no"?>
<svg width="95px" height="55px" viewBox="0 0 95 55" version="1.1" xmlns="http://www.w3.org/2000/svg" xmlns:xlink="http://www.w3.org/1999/xlink" xmlns:sketch="http://www.bohemiancoding.com/sketch/ns">
    <!-- Generator: Sketch 3.3.1 (12005) - http://www.bohemiancoding.com/sketch -->
    <title>logo-londonlive</title>
    <desc>Created with Sketch.</desc>
    <defs></defs>
    <g id="Styles" stroke="none" stroke-width="1" fill="none" fill-rule="evenodd" sketch:type="MSPage">
        <g id="logo-londonlive" sketch:type="MSArtboardGroup" fill="#0038CC">
            <path d="M5.87996525,6.42622996 L34.0323509,6.42622996 L34.0323509,0.547306974 L5,0.547306974 L0.728478336,0.547687647 L0.728478336,19.7111456 L5.87996525,25.5902589 L5.87996525,6.42622996 Z" id="Fill-1" sketch:type="MSShapeGroup"></path>
            <path d="M89.1200347,48.5739604 L60.9682203,48.5739604 L60.9682203,54.452693 L90.4079065,54.452693 L94.2715217,54.452693 L94.2715217,35.2896158 L89.1200347,29.4101218 L89.1200347,48.5739604 Z" id="Fill-4" sketch:type="MSShapeGroup"></path>
            <path d="M16.9683718,14.7309914 L13.8477761,14.7309914 L13.8477761,26.1163489 L21.8696627,26.1163489 L21.8696627,23.2565433 L16.9683718,23.2565433 L16.9683718,14.7309914" id="Fill-7" sketch:type="MSShapeGroup"></path>
            <path d="M28.4469243,17.482115 C30.0347362,17.482115 31.1440528,18.6913227 31.1440528,20.423575 C31.1440528,22.154495 30.0347362,23.3640834 28.4469243,23.3640834 C26.8593029,23.3640834 25.7497958,22.154495 25.7497958,20.423575 C25.7497958,18.6913227 26.8593029,17.482115 28.4469243,17.482115 M28.4469243,26.2545332 C31.7432666,26.2545332 34.3261504,23.6926041 34.3261504,20.423575 C34.3261504,17.1532135 31.7432666,14.5926168 28.4469243,14.5926168 C25.150582,14.5926168 22.5686503,17.1532135 22.5686503,20.423575 C22.5686503,23.6926041 25.150582,26.2545332 28.4469243,26.2545332" id="Fill-8" sketch:type="MSShapeGroup"></path>
            <path d="M45.9496033,26.2358802 L45.9496033,14.6908304 L42.9657204,14.6908304 L42.9700998,19.8685538 L36.0430588,14.5286638 L36.0430588,26.0773299 L39.025228,26.0773299 L39.0248472,20.9176885 L45.9496033,26.2358802" id="Fill-9" sketch:type="MSShapeGroup"></path>
            <path d="M82.3276122,14.6908304 L79.3443005,14.6908304 L79.3486799,19.8687442 L72.4210677,14.5286638 L72.4210677,26.0769493 L75.4039985,26.0769493 L75.4028561,20.9180692 L82.3276122,26.2360706 L82.3276122,14.6908304" id="Fill-10" sketch:type="MSShapeGroup"></path>
            <path d="M51.1976271,17.5900358 L51.6591759,17.5900358 C54.039656,17.5900358 54.5392865,19.1308096 54.5392865,20.423575 C54.5392865,21.7161501 54.039656,23.2565433 51.6591759,23.2565433 L51.1976271,23.2565433 L51.1976271,17.5900358 L51.1976271,17.5900358 Z M51.7654235,14.7309914 L48.0772217,14.7309914 L48.0772217,26.1163489 L51.7654235,26.1163489 C55.2809254,26.1163489 57.7364263,23.7754005 57.7364263,20.423575 C57.7364263,17.0715592 55.2809254,14.7309914 51.7654235,14.7309914 L51.7654235,14.7309914 Z" id="Fill-11" sketch:type="MSShapeGroup"></path>
            <path d="M64.9210892,23.363893 C63.3332773,23.363893 62.2237703,22.1548757 62.2237703,20.4231943 C62.2237703,18.6913227 63.3332773,17.4823053 64.9210892,17.4823053 C66.5092818,17.4823053 67.6182177,18.6913227 67.6182177,20.4231943 C67.6182177,22.1548757 66.5092818,23.363893 64.9210892,23.363893 M64.9210892,14.5929975 C61.6247469,14.5929975 59.0426247,17.1534039 59.0426247,20.4231943 C59.0426247,23.6926041 61.6247469,26.2545332 64.9210892,26.2545332 C68.2178123,26.2545332 70.799744,23.6926041 70.799744,20.4231943 C70.799744,17.1534039 68.2178123,14.5929975 64.9210892,14.5929975" id="Fill-12" sketch:type="MSShapeGroup"></path>
            <path d="M16.9683718,30.5456693 L13.8477761,30.5456693 L13.8477761,41.9312171 L21.8696627,41.9312171 L21.8696627,39.0717921 L16.9683718,39.0717921 L16.9683718,30.5456693" id="Fill-13" sketch:type="MSShapeGroup"></path>
            <path d="M23.0741834,30.5456693 L26.1942079,30.5456693 L26.1942079,41.9314074 L23.0741834,41.9314074 L23.0741834,30.5456693 Z" id="Fill-14" sketch:type="MSShapeGroup"></path>
            <path d="M32.9578789,35.8315038 L30.2896924,30.5454789 L26.8888161,30.5454789 L32.9376957,42.1738961 L38.7462804,30.5454789 L35.5708471,30.5454789 L32.9578789,35.8315038" id="Fill-15" sketch:type="MSShapeGroup"></path>
            <path d="M39.4639279,41.9312171 L47.7017372,41.9312171 L47.7017372,39.0717921 L42.5845237,39.0717921 L42.5845237,37.6290415 L47.1474597,37.6290415 L47.1474597,34.8160586 L42.5845237,34.8160586 L42.5845237,33.4043329 L47.7017372,33.4043329 L47.7017372,30.5456693 L39.4639279,30.5456693 L39.4639279,41.9312171" id="Fill-16" sketch:type="MSShapeGroup"></path>
        </g>
    </g>
</svg>