<?xml version="1.0" encoding="UTF-8" standalone="no"?>
<svg width="83px" height="51px" viewBox="0 0 83 51" version="1.1" xmlns="http://www.w3.org/2000/svg" xmlns:xlink="http://www.w3.org/1999/xlink" xmlns:sketch="http://www.bohemiancoding.com/sketch/ns">
    <!-- Generator: Sketch 3.3.1 (12005) - http://www.bohemiancoding.com/sketch -->
    <title>logo-mtv</title>
    <desc>Created with Sketch.</desc>
    <defs></defs>
    <g id="Styles" stroke="none" stroke-width="1" fill="none" fill-rule="evenodd" sketch:type="MSPage">
        <g id="logo-mtv" sketch:type="MSArtboardGroup" fill="#0038CC">
            <path d="M75.7941007,50.4113095 L58.2295505,50.4113095 C58.0152108,48.5386905 57.8726603,46.6512755 57.9607263,44.7664116 C58.004588,42.7227041 58.0612998,40.6791667 58.0498204,38.6354592 C58.1010494,35.7883503 57.7367918,32.9594388 57.5719678,30.1221939 C57.3939511,27.8897109 57.6197702,25.6471939 57.4290747,23.4153912 C58.9325368,22.4861395 60.4885988,21.6466837 62.0078238,20.7443027 C63.0123592,20.132398 64.055959,19.5784864 65.0109787,18.8912415 C65.6456026,18.417602 66.3232314,17.8546769 66.4813733,17.0392007 C66.5869155,16.5892007 66.402388,16.1366497 66.1229411,15.7890306 C65.3671836,14.7786565 63.9536722,14.2616497 62.732227,14.6543367 C61.4329958,15.1140306 60.7128759,16.3912415 59.5820668,17.1038265 C58.2459986,17.9186224 56.9058184,18.7267857 55.5401094,19.4909014 C54.5172411,18.9698129 53.2966525,18.782568 52.1840049,19.1130102 C51.541157,19.3068878 50.9370308,19.7528061 50.7038442,20.3966837 C50.4401601,21.0772959 50.7047009,21.8208333 50.5191454,22.5147109 C50.4094912,22.8796769 50.0980046,23.1373299 49.7781227,23.3213435 C48.1494149,24.2727041 46.517623,25.2177721 44.8947405,26.1772959 C43.6198388,26.9283163 42.362756,27.7375 40.9619233,28.2405612 C40.1030224,28.540051 39.1781575,28.7135204 38.4174314,29.2369898 C37.8537401,29.6142007 37.4373968,30.2458333 37.4341414,30.9337585 C37.4266027,31.7994048 37.923816,32.5978741 38.5724893,33.1451531 C39.2482334,33.7504252 40.2579089,33.8914116 41.1109845,33.6261054 C42.2193488,33.289881 43.1467837,32.5716837 44.056571,31.8876701 C45.367967,30.8920918 46.7081472,29.9366497 48.0507261,28.9842687 C48.7502857,28.5080782 49.4484747,27.9878401 50.2767067,27.7531463 C50.7771755,27.6007653 51.3871271,27.825085 51.6136316,28.3068878 C51.9434509,28.9982143 52.0135268,29.7771259 52.0291183,30.5320578 C52.0291183,32.5332483 52.0306603,34.5359694 51.9326568,36.5363095 C51.8320833,38.9815476 51.6598919,41.4235544 51.5601751,43.8696429 C51.4883859,45.150085 51.5288209,46.4320578 51.5149428,47.7131803 C51.5197401,48.6130102 51.5361883,49.5121599 51.5742246,50.4113095 L46.9485298,50.4113095 C46.9528132,45.8446429 46.9618939,41.2788265 46.9478445,36.7121599 C44.0096253,39.1638605 41.0779169,41.6232143 38.1405545,44.075085 C35.2055907,41.6232143 32.2713123,39.1696429 29.3348065,36.7186224 C29.3332645,41.2829082 29.3348065,45.8470238 29.3337785,50.4113095 L0.661769593,50.4113095 L0.661769593,0.588690476 L28.5773357,0.588690476 C31.7701582,3.92729592 34.9557847,7.27338435 38.1587159,10.6031463 C41.331835,7.25042517 44.539735,3.93052721 47.7226201,0.588690476 L75.7990694,0.588690476 C75.7956428,7.65042517 75.8071222,14.7125 75.8040382,21.7742347 C75.8079789,21.9689626 75.7348189,22.1538265 75.6299621,22.3159014 C73.5621233,25.6847789 71.7437479,29.2116497 70.3113897,32.8948129 C70.0533596,33.5378401 69.852384,34.2087585 69.5097145,34.814881 C69.3544853,35.0594388 69.1420302,35.3254252 68.831229,35.3580782 C68.5024377,35.4153912 68.1076825,35.3114796 67.9444005,34.999915 C67.7011052,34.5613095 67.6913391,34.0492347 67.6327426,33.5640306 C67.3789959,31.4058673 67.1531768,29.2436224 66.7969719,27.0994048 C66.6042203,26.1111395 66.3907373,25.0670918 65.7280146,24.2694728 C65.2837436,23.7165816 64.5709912,23.4310374 63.8702322,23.4063776 C62.8944809,23.3670918 61.8741827,23.6395408 61.1283626,24.2842687 C60.5009349,24.8233844 60.139076,25.6177721 60.0386738,26.4261054 C59.9052041,27.3922619 60.103781,28.3609694 60.3254881,29.2983844 C60.7161313,30.9477041 61.2863332,32.5470238 61.8666439,34.1375 C63.2111075,37.6381803 64.5511164,41.1397109 65.8969506,44.6395408 C66.2068951,45.424915 66.6734395,46.2119898 67.435879,46.6356293 C68.2426943,47.0529762 69.1913746,47.0635204 70.0739197,46.9490646 C70.8226525,46.859949 71.4882879,46.3779762 71.8626542,45.7375 C72.5221216,44.6257653 72.7907744,43.3502551 73.1738789,42.1320578 C73.9800087,39.5485544 74.749987,36.9477041 75.7882754,34.4436224" id="a" sketch:type="MSShapeGroup"></path>
            <path d="M31.2518707,0.588690476 L31.3819137,0.588690476 C31.4471923,0.677806122 31.534573,0.743282313 31.6392585,0.782568027 C34.3103668,1.94022109 36.9790764,3.10433673 39.6494993,4.26607143 C40.0963403,4.44277211 40.394634,4.83290816 40.7235967,5.16267007 C39.8780599,6.07644558 38.9960287,6.95671769 38.1554606,7.87389456 C35.9596348,5.58647959 33.762267,3.29906463 31.5871727,0.991921769 C31.461927,0.868452381 31.3466188,0.73579932 31.2518707,0.588690476" id="Fill-2" sketch:type="MSShapeGroup"></path>
            <path d="M77.6912901,0.588690476 L77.7310398,0.588690476 C79.2682549,1.50569728 80.8094107,2.41794218 82.3382304,3.34889456 C82.3317197,6.75467687 82.3243523,10.1613095 82.333947,13.5670918 C80.6757696,15.3677721 79.1452365,17.2788265 77.6971155,19.2480442 C77.6897481,13.0288265 77.680496,6.8087585 77.6912901,0.588690476" id="Fill-3" sketch:type="MSShapeGroup"></path>
            <path d="M77.9731357,29.7827381 C79.2607161,27.3864796 80.6963298,25.0655612 82.325723,22.8820578 C82.3217823,32.0587585 82.3306917,41.2346088 82.329835,50.4113095 L77.6863214,50.4113095 C77.6906048,43.8142007 77.6756986,37.2169218 77.683066,30.6204932 C77.6888914,30.3177721 77.8372673,30.0453231 77.9731357,29.7827381" id="Fill-4" sketch:type="MSShapeGroup"></path>
            <path d="M31.2321672,40.7633503 C32.4568678,41.7810374 33.6666622,42.8152211 34.9071256,43.8142007 C34.9689774,43.8771259 35.0827437,43.9278061 35.0678376,44.034949 C35.0801737,46.1604592 35.0901111,48.2857993 35.0786317,50.4113095 L31.2311392,50.4113095 C31.2321672,47.1953231 31.2295972,43.9793367 31.2321672,40.7633503" id="Fill-5" sketch:type="MSShapeGroup"></path>
            <path d="M40.9543846,44.210119 C42.3060442,43.0597789 43.6748373,41.9291667 45.0364343,40.7903912 C45.0333503,41.707568 45.0473997,42.6245748 45.0201575,43.5417517 C44.7407106,43.7691327 44.4612636,43.9956633 44.179418,44.2191327 C43.1046353,44.2296769 42.0291673,44.2296769 40.9543846,44.210119" id="Fill-6" sketch:type="MSShapeGroup"></path>
        </g>
    </g>
</svg>