<?xml version="1.0" encoding="UTF-8" standalone="no"?>
<svg width="81px" height="41px" viewBox="0 0 81 41" version="1.1" xmlns="http://www.w3.org/2000/svg" xmlns:xlink="http://www.w3.org/1999/xlink" xmlns:sketch="http://www.bohemiancoding.com/sketch/ns">
    <!-- Generator: Sketch 3.3.1 (12005) - http://www.bohemiancoding.com/sketch -->
    <title>logo-itv</title>
    <desc>Created with Sketch.</desc>
    <defs></defs>
    <g id="Styles" stroke="none" stroke-width="1" fill="none" fill-rule="evenodd" sketch:type="MSPage">
        <g id="logo-itv" sketch:type="MSArtboardGroup" fill="#0038CC">
            <path d="M10.9388749,6.4632458 C11.914981,2.64353023 7.97949868,-0.531117174 4.36080713,0.505994819 C1.04626136,0.980387776 -0.151687044,4.71775422 0.665801822,7.60152326 C2.11088255,12.4709688 10.8818615,11.8132827 10.9388749,6.4632458" id="Fill-1" sketch:type="MSShapeGroup"></path>
            <path d="M66.9686966,31.5124336 C64.1486373,27.2373628 62.4437793,22.222478 58.9455481,18.4091821 C58.6223239,11.5983337 48.7294885,13.9634361 47.9182112,19.1742321 C48.4062642,21.197984 49.5596223,22.9939476 50.5991753,24.7772933 C50.6115985,27.2499808 50.1743473,29.8619091 48.4315542,31.7464202 C43.5390442,36.9383999 32.2583634,34.1938717 33.1137873,26.0674296 C33.2533261,24.2524283 33.1457326,22.4312286 33.1266542,20.6098076 C36.0862522,21.4636264 39.1853891,21.1220546 42.2146457,21.1537103 C42.2969492,18.9783208 42.2969492,16.7965117 42.2337241,14.6147026 C39.1853891,14.5389945 36.1306207,14.7475237 33.0949307,14.4692634 C32.9682587,11.2060685 33.6590757,7.77219846 32.7337714,4.60397075 C30.2114245,2.58021881 25.0209803,2.32099615 22.954963,5.04648662 C22.7457657,13.1729287 22.7331207,21.3624609 22.9611746,29.4886816 C21.8839084,34.6111515 13.8798383,36.4323512 11.5347433,31.4491222 C10.1089629,25.9284101 11.5347433,20.0849426 10.7172545,14.4692634 C7.3266168,14.5958862 3.91712253,14.2985882 0.545563297,14.6842123 C0.564419892,19.7435922 0.399591065,24.808949 0.628088632,29.8619091 C0.957524444,34.4909484 4.48747908,38.5320326 8.9871064,39.6260363 C14.9886061,41.3967639 22.4163299,40.9983004 27.232748,36.6601395 C35.6869361,42.6300085 49.9336484,42.4464939 55.7197392,32.8911174 C57.4751773,34.9589217 58.571522,37.5518123 60.5425908,39.4363234 C63.86357,41.4915097 69.1744746,41.0363758 71.0312946,37.1976225 C74.9286201,30.4879396 79.1305351,23.4935766 80.5820492,15.8353291 C78.5473117,15.0193644 76.4497927,14.2352767 74.2189466,14.3238242 C72.3304031,20.2241834 70.5303747,26.370926 66.9686966,31.5124336 Z" id="Fill-2" sketch:type="MSShapeGroup"></path>
        </g>
    </g>
</svg>