<?xml version="1.0" encoding="UTF-8" standalone="no"?>
<svg width="44px" height="45px" viewBox="0 0 44 45" version="1.1" xmlns="http://www.w3.org/2000/svg" xmlns:xlink="http://www.w3.org/1999/xlink" xmlns:sketch="http://www.bohemiancoding.com/sketch/ns">
    <!-- Generator: Sketch 3.3.1 (12005) - http://www.bohemiancoding.com/sketch -->
    <title>logo-slideshare</title>
    <desc>Created with Sketch.</desc>
    <defs></defs>
    <g id="Styles" stroke="none" stroke-width="1" fill="none" fill-rule="evenodd" sketch:type="MSPage">
        <g id="logo-slideshare" sketch:type="MSArtboardGroup" fill="#0038CC">
            <path d="M22.6699794,33.8256723 C22.6484412,35.8289529 22.6746744,37.8349302 22.6692986,39.8393046 C22.6167017,41.0057285 22.7846532,42.2538079 23.5036771,43.2116225 C24.1718971,44.1703311 25.2827082,44.7392384 26.4174271,44.9344371 C27.7601428,45.1141391 29.1557544,44.9251987 30.386104,44.3533113 C32.0647228,43.6008278 33.3602209,42.1667881 34.1805536,40.5473841 C35.0546786,38.8522848 35.4073171,36.922649 35.3777313,35.0275828 C35.4129951,33.4916225 35.1278959,31.9711589 34.7910963,30.4784106 L34.7579244,30.4092715 C34.6918794,30.059404 34.5795132,29.7205629 34.511974,29.3715894 C34.574134,29.3468543 34.6972586,29.2961921 34.7597174,29.2711589 C35.0788851,29.1340728 35.3953632,28.9907285 35.7136344,28.8497682 C38.5269721,27.5507285 41.2228632,25.8830464 43.3506478,23.6089073 C43.7633544,23.2053974 44.1670955,22.6853642 44.1150963,22.0744371 C44.1384063,21.667351 43.8302959,21.2286755 43.4044401,21.2045364 C42.8458967,21.1362914 42.3928459,21.533245 41.9660936,21.8282781 C41.1660824,22.3465232 40.3514278,22.8415232 39.5218309,23.310596 C36.5384498,24.8531126 33.2173724,25.7647351 29.8526636,25.852947 C28.8327017,25.9676821 27.8130386,25.806457 26.7912836,25.8398344 C25.7865628,25.8556291 24.7119121,25.6258609 23.7708455,26.0821192 C23.222595,26.330018 22.8648182,26.8607979 22.7452486,27.4372361 C22.1799836,27.3638394 21.6841722,27.2586556 21.5169478,27.0843377 C21.0686783,26.6170531 20.7468213,26.234106 20.2142774,26.0147682 C19.5971601,25.7554967 18.9122048,25.806457 18.2580305,25.8156954 C17.2344824,25.8547351 16.2091413,25.807351 15.1882828,25.8988411 C13.8297282,25.8371523 12.4631048,25.7972185 11.1248717,25.5290066 C8.91370898,25.155 6.77845321,24.4034106 4.77857475,23.3985099 C4.50034898,23.2182119 4.22092783,23.040298 3.92297821,22.8942715 C3.31064244,22.5882119 2.76883437,22.163245 2.17114206,21.8303642 C1.90218052,21.6646689 1.64786244,21.4775166 1.38517667,21.3016887 C1.0492736,21.2128808 0.646727827,21.105596 0.346985135,21.3472848 C0.0340932119,21.5359272 -0.0214921728,21.9293046 0.00630051954,22.2612914 C0.00540398108,22.7184437 0.32098552,23.0867881 0.593533212,23.422947 C2.9412686,25.9915232 5.99248783,27.8153642 9.16683167,29.1865232 C9.3087836,29.2452318 9.45103437,29.3033444 9.59298629,29.362649 C9.58372206,29.4395364 9.56310167,29.5912252 9.55383744,29.6672185 C9.2809909,30.5395033 9.11214283,31.4430795 8.95823706,32.3421854 C8.68359744,34.1466556 8.62233398,36.0011921 8.98035167,37.7982119 C9.10018898,38.2359934 9.19492321,38.6800331 9.3237259,39.1151325 C9.47314898,39.4888411 9.61241129,39.8661258 9.7860409,40.23 C10.6804874,42.1888411 12.3229459,43.8204636 14.3559963,44.5800993 C14.445949,44.6096026 14.5362005,44.6411921 14.6270498,44.6736755 C15.1494328,44.797649 15.6652413,44.9836093 16.2091413,44.9836093 C16.8316378,44.9916556 17.464594,45.0196689 18.0715505,44.8566556 C19.0326398,44.6197351 19.9533848,44.1026821 20.5462955,43.2974503 C21.1744701,42.5065232 21.4213171,41.4810596 21.4574774,40.4889735 C21.4547176,38.7092183 21.4564889,36.9294631 21.4573514,35.1497078 C21.4578897,34.0387346 21.458074,32.9277613 21.4565809,31.8167881 C21.7276344,31.8296026 21.9948028,31.8793709 22.250914,31.9702649 C22.3865901,31.995298 22.5219674,32.017351 22.6582413,32.0388079 C22.6779651,32.0551987 22.6388167,33.8090064 22.6582417,33.8245031 C22.6621879,33.8248991 22.6661003,33.8252888 22.6699794,33.8256723 Z" id="Fill-39" sketch:type="MSShapeGroup"></path>
            <path d="M4.05387283,0.882119205 C4.74360975,0.37102649 5.61384975,0.129337748 6.46854975,0.162119205 C16.9215905,0.161225166 27.3740336,0.156456954 37.8273732,0.164801325 C39.5553017,0.118311258 41.1356001,1.39917219 41.6505121,3.01023179 C41.8620951,3.57198675 41.9084163,4.17456954 41.8964624,4.77029801 C41.8919798,10.2909934 41.9003474,15.8104967 41.8919798,21.3314901 C41.8937728,21.4995695 41.9299332,21.6646689 41.9660936,21.8282781 C41.1660824,22.3465232 40.3514278,22.8415232 39.5218309,23.310596 C39.6452544,23.174702 39.7408851,23.0110927 39.7250463,22.8221523 C39.7250463,17.2978808 39.7271382,11.7736093 39.7250463,6.24903974 C39.6879894,5.26529801 39.5932551,4.17695364 38.9094951,3.40718543 C38.2747459,2.68986755 37.2622551,2.50986755 36.3492801,2.4997351 C27.1301751,2.49854305 17.9110701,2.50211921 8.69196513,2.49764901 C7.84085129,2.47798013 6.96582975,2.49854305 6.16223244,2.80966887 C5.67122821,3.00933775 5.26599283,3.40539735 5.05889244,3.89205298 C4.71850667,4.65943709 4.68144975,5.51533113 4.66531206,6.34142384 C4.65993283,11.6457616 4.66650744,16.9498013 4.6617259,22.2541391 C4.6700936,22.6361921 4.60434744,23.0423841 4.77857475,23.3985099 C4.50034898,23.2182119 4.22092783,23.040298 3.92297821,22.8942715 C3.31064244,22.5882119 2.76883437,22.163245 2.17114206,21.8303642 C2.19893475,21.7284437 2.23240552,21.6265232 2.23688821,21.5213245 C2.23987667,15.8763576 2.23240552,10.2307947 2.24077321,4.58612583 C2.21567013,3.16102649 2.87552244,1.71089404 4.05387283,0.882119205" id="Fill-42" sketch:type="MSShapeGroup"></path>
            <path d="M27.6247655,13.7223179 C29.2977063,13.3927152 31.1117024,13.883245 32.3952467,15.0022848 C33.7591805,16.1725828 34.4022974,18.1102649 33.9513386,19.8563245 C33.5299655,21.4915232 32.2246055,22.8296026 30.6413186,23.3922517 C29.8015609,23.7215563 28.8894824,23.7549338 27.9986221,23.6965232 C26.2781648,23.5141391 24.6386948,22.4907616 23.8273274,20.9494371 C23.4971024,20.3876821 23.358139,19.7463576 23.2418878,19.1133775 C23.1704636,17.8939073 23.5269871,16.6452318 24.2998032,15.6886093 C25.1162509,14.6568874 26.3244859,13.9413576 27.6247655,13.7223179" id="Fill-41" sketch:type="MSShapeGroup"></path>
            <path d="M15.1010198,13.7100993 C15.5307605,13.6627152 15.9613978,13.5777815 16.3947248,13.6314238 C16.8967863,13.7065232 17.4033305,13.7497351 17.8904498,13.905298 C18.8351024,14.2709603 19.7391121,14.8112583 20.3708728,15.6173841 C20.9285198,16.267053 21.2467909,17.0821192 21.4335698,17.9085099 C21.4640521,18.3722185 21.4825805,18.8395033 21.4398455,19.3029139 C21.2479863,20.7762914 20.3374021,22.1334437 19.0577428,22.8895033 C18.4250855,23.2995695 17.6956021,23.5382781 16.9589463,23.6744702 C16.403989,23.7206623 15.844549,23.7224503 15.2886951,23.6863907 C13.8067171,23.4950662 12.3925771,22.6963907 11.5277163,21.4712583 C11.1601355,20.9574834 10.9171736,20.3689073 10.7444405,19.7657285 C10.576489,19.0650993 10.5875463,18.3397351 10.739659,17.6382119 C11.2139278,15.5980132 13.0401767,14.0072185 15.1010198,13.7100993" id="Fill-40" sketch:type="MSShapeGroup"></path>
        </g>
    </g>
</svg>