<?xml version="1.0" encoding="UTF-8" standalone="no"?>
<svg width="279px" height="37px" viewBox="0 0 279 37" version="1.1" xmlns="http://www.w3.org/2000/svg" xmlns:xlink="http://www.w3.org/1999/xlink" xmlns:sketch="http://www.bohemiancoding.com/sketch/ns">
    <!-- Generator: Sketch 3.3.1 (12005) - http://www.bohemiancoding.com/sketch -->
    <title>logo-100shapes</title>
    <desc>Created with Sketch.</desc>
    <defs></defs>
    <g id="Styles" stroke="none" stroke-width="1" fill="none" fill-rule="evenodd" sketch:type="MSPage">
        <g id="logo-100shapes" sketch:type="MSArtboardGroup" fill="#FFFFFF">
            <path d="M265.926622,0.314122001 C257.592407,0.314122001 254.13267,5.54707608 254.13267,10.068913 C254.13267,16.0111748 258.973996,19.0575792 263.857843,20.9908047 L267.134161,15.3315421 C262.924532,13.6624976 260.999172,12.0401371 260.999172,9.66214667 C260.999172,8.03616723 262.624359,6.10583687 265.612395,6.10583687 C268.494849,6.10583687 272.478898,8.64631665 272.898347,8.90000274 C273.074199,9.01363673 273.261942,9.06393968 273.450766,9.06393968 C273.937962,9.06393968 274.430563,8.72991364 274.732898,8.2905771 L276.724922,5.39471967 C277.09176,4.88662371 276.934287,4.0231501 276.410335,3.71807539 C275.362072,2.95593146 271.273161,0.314122001 265.926622,0.314122001" id="s2-2" sketch:type="MSShapeGroup"></path>
            <path d="M267.18461,15.3471035 L267.134161,15.3264757 L263.857843,20.9857382 C263.901085,21.003109 263.943967,21.0204798 263.987209,21.0374887 C268.390347,22.7651597 270.644347,24.5431336 270.644347,27.1339164 C270.644347,29.3186566 268.600072,31.0459657 265.874371,31.0459657 C262.466885,31.0459657 258.221221,28.0484167 257.959245,27.8960603 C257.487545,27.5406826 256.596395,27.5406826 256.176945,28.2517999 L254.289783,31.4017053 C253.818083,32.2148759 254.080058,32.468562 254.552119,32.9256312 C255.600382,33.8911583 259.479209,36.8887073 266.084096,36.8887073 C273.47491,36.8887073 278.140024,32.0621576 278.140024,26.8292036 C278.140024,20.2753447 272.269173,17.3288225 267.18461,15.3471035" id="s2-1" opacity="0.8" sketch:type="MSShapeGroup"></path>
            <path d="M232.431207,15.4209294 L225.616595,15.4209294 L225.616595,35.6029061 C225.616595,36.111002 226.035684,36.5680713 226.612607,36.5680713 L247.946512,36.5680713 C248.523435,36.5680713 248.942524,36.111002 248.942524,35.6029061 L248.942524,31.4368088 C248.942524,30.9290747 248.523435,30.4716436 247.946512,30.4716436 L232.431207,30.4716436 L232.431207,21.5806881 L245.378285,21.5806881 C245.902236,21.5806881 246.373936,21.1742837 246.373936,20.615523 L246.373936,16.3987608 C246.373936,15.8906648 245.902236,15.4335956 245.378285,15.4335956 L232.431207,15.4335956 L232.431207,15.4209294" id="e-2" sketch:type="MSShapeGroup"></path>
            <path d="M247.946512,7.09669636 C248.523435,7.09669636 248.942524,6.63926525 248.942524,6.13116929 L248.942524,1.96543386 C248.942524,1.4573379 248.523435,0.999906785 247.946512,0.999906785 L226.612607,0.999906785 C226.035684,0.999906785 225.616595,1.4573379 225.616595,1.96543386 L225.616595,15.4158629 L232.430847,15.4158629 L232.430847,7.09669636 L247.946512,7.09669636" id="e-1" opacity="0.8" sketch:type="MSShapeGroup"></path>
            <path d="M7.31334782,18.7800082 L0.446485029,18.7800082 L0.446485029,35.5366799 C0.446485029,36.0451378 0.91854581,36.502207 1.44249724,36.502207 L6.31769596,36.502207 C6.84200774,36.502207 7.31334782,36.0451378 7.31334782,35.5366799 L7.31334782,18.7800082" id="1-2" sketch:type="MSShapeGroup"></path>
            <path d="M7.32379802,1.84890473 C7.32379802,1.33936121 6.85065618,0.880482522 6.32490299,0.880482522 L1.43529021,0.880482522 C0.909537017,0.880482522 0.43639518,1.33936121 0.43639518,1.84890473 L0.43639518,18.7749417 L7.32379802,18.7749417 L7.32379802,1.84890473" id="1-1" opacity="0.800000012" sketch:type="MSShapeGroup"></path>
            <path d="M171.568518,0.496877313 L171.044567,0.496877313 C170.572506,0.496877313 170.31053,0.750925291 170.153417,1.05563811 L153.851104,35.2471665 C153.536878,35.9076189 153.956327,36.5680713 154.742254,36.5680713 L159.302866,36.5680713 C160.141404,36.5680713 160.613105,36.0603372 160.822829,35.5518794 L163.391417,30.0652392 L165.960004,24.4258807 L171.096818,13.2488554 L171.254292,13.2488554 L176.495968,24.4258807 L179.064195,30.0652392 L181.632782,35.5518794 C181.999981,36.2633585 182.366819,36.5680713 183.153106,36.5680713 L187.713718,36.5680713 C188.499645,36.5680713 188.919094,35.9076189 188.604507,35.2471665 L172.459668,1.05563811 C172.302555,0.750925291 172.09283,0.496877313 171.568518,0.496877313" id="a-2" sketch:type="MSShapeGroup"></path>
            <path d="M165.99748,24.4211761 L163.422407,30.0601727 L179.02852,30.0601727 L176.463897,24.4211761 L165.99748,24.4211761" id="a-1" opacity="0.8" sketch:type="MSShapeGroup"></path>
            <path d="M65.3854724,18.647194 L65.3861931,18.7116107 C65.3861931,26.2885373 63.0777799,30.5089184 59.0378765,30.5089184 C54.9979731,30.5089184 52.6895599,26.2885373 52.6895599,18.7116107 L52.6902806,18.647194 L45.8176521,18.647194 L45.8169314,18.7116107 C45.8169314,29.8477423 50.6434827,36.5090829 59.0378765,36.5090829 C67.4322703,36.5090829 72.2591819,29.8477423 72.2591819,18.7116107 L72.2581008,18.647194 L65.3854724,18.647194" id="02-2" sketch:type="MSShapeGroup"></path>
            <path d="M59.0378765,0.919204935 C50.6600588,0.919204935 45.8367508,7.55521316 45.8176521,18.6518986 L52.6902806,18.6518986 C52.7036136,11.1668924 55.0098647,6.91973132 59.0378765,6.91973132 C63.0658883,6.91973132 65.3721394,11.1668924 65.3854724,18.6518986 L72.2581008,18.6518986 C72.2390022,7.55521316 67.4156941,0.919204935 59.0378765,0.919204935" id="02-1" opacity="0.800000012" sketch:type="MSShapeGroup"></path>
            <path d="M26.8469347,0.92246196 C18.5271337,0.985793009 13.7452661,7.63374366 13.7452661,18.7166772 C13.7452661,29.7992488 18.5271337,36.4475613 26.8469347,36.5112543 L26.8469347,30.5100041 C22.8816241,30.426769 20.6178945,26.2176066 20.6178945,18.7166772 C20.6178945,11.2660507 22.8816241,7.007671 26.8469347,6.92335024 L26.8469347,0.92246196" id="01-2" sketch:type="MSShapeGroup"></path>
            <path d="M26.9662111,0.914500342 C26.9258517,0.914500342 26.8872941,0.917033584 26.8469347,0.917395476 L26.8469347,6.91864565 C26.8869337,6.91755997 26.9258517,6.91466484 26.9662111,6.91466484 C31.0061145,6.91466484 33.3145278,11.1860726 33.3145278,18.7116107 C33.3145278,26.2885373 31.0061145,30.5089184 26.9662111,30.5089184 C26.9258517,30.5089184 26.8869337,30.5056614 26.8469347,30.5049376 L26.8469347,36.5061878 C26.8872941,36.5065497 26.9258517,36.5090829 26.9662111,36.5090829 C35.3606049,36.5090829 40.1871562,29.8477423 40.1871562,18.7116107 C40.1871562,7.57547909 35.3606049,0.914500342 26.9662111,0.914500342" id="01-1" opacity="0.800000012" sketch:type="MSShapeGroup"></path>
            <path d="M201.404922,0.999906785 L195.607583,0.999906785 C195.03066,0.999906785 194.611571,1.4573379 194.611571,1.96543386 L194.611571,35.5982015 C194.611571,36.1059356 195.03066,36.5633667 195.607583,36.5633667 L200.42981,36.5633667 C200.953762,36.5633667 201.425822,36.1059356 201.425822,35.5982015 L201.404922,0.999906785" id="p-2" sketch:type="MSShapeGroup"></path>
            <path d="M207.871074,1.00461138 L201.425822,1.00461138 L201.425822,7.25375737 L207.451985,7.25375737 C210.387049,7.25375737 212.850774,9.38747087 212.850774,12.1819986 C212.850774,15.1791857 210.387049,17.4656175 207.451985,17.4656175 L201.425822,17.4656175 L201.425822,23.6633749 L207.923685,23.6633749 C214.318487,23.6633749 219.613135,18.5321124 219.613135,12.2330254 C219.613135,6.08520905 214.318487,1.00461138 207.871074,1.00461138" id="p-1" opacity="0.8" sketch:type="MSShapeGroup"></path>
            <path d="M147.130905,0.936575736 L142.308678,0.936575736 C141.732115,0.936575736 141.312665,1.39400685 141.312665,1.90210281 L141.312665,15.3651981 L124.1365,15.3651981 L124.1365,21.5126525 L141.312665,21.5126525 L141.312665,35.5345086 C141.312665,36.0429664 141.732115,36.5000356 142.308678,36.5000356 L147.130905,36.5000356 C147.655216,36.5000356 148.126917,36.0429664 148.126917,35.5345086 L148.126917,1.90210281 C148.126917,1.39400685 147.655216,0.936575736 147.130905,0.936575736" id="h-2" sketch:type="MSShapeGroup"></path>
            <path d="M123.140848,0.94164222 L118.266009,0.94164222 C117.741337,0.94164222 117.270358,1.39907334 117.270358,1.9068074 L117.270358,35.539575 C117.270358,36.047671 117.741337,36.5051021 118.266009,36.5051021 L123.140848,36.5051021 C123.717411,36.5051021 124.1365,36.047671 124.1365,35.539575 L124.1365,1.9068074 C124.1365,1.39907334 123.717411,0.94164222 123.140848,0.94164222" id="h-1" opacity="0.800000012" sketch:type="MSShapeGroup"></path>
            <path d="M99.8797826,15.4672515 L96.6034645,21.126514 C96.6467067,21.143523 96.6895886,21.1612556 96.7328308,21.1782646 C101.135969,22.9055737 103.389969,24.6835476 103.389969,27.2746922 C103.389969,29.4590706 101.345693,31.1867416 98.6199929,31.1867416 C95.2128671,31.1867416 90.9668426,28.1888307 90.7048669,28.0368362 C90.5091959,27.8895463 90.2418149,27.8030541 89.9657854,27.8030541 C89.5755245,27.8030541 89.168327,27.9756765 88.9225671,28.3922138 L87.0354051,31.5421192 C86.5637046,32.3552899 86.8256804,32.608976 87.2973808,33.0664071 C88.3460044,34.0315723 92.2248305,37.0291213 98.8297176,37.0291213 C106.220532,37.0291213 110.885645,32.2025716 110.885645,26.9699794 C110.885645,20.4157587 105.014795,17.4692365 99.9302318,15.4878794 L99.8797826,15.4672515" id="s1-2" sketch:type="MSShapeGroup"></path>
            <path d="M93.7451545,9.79278958 C93.7451545,8.16717203 95.3699805,6.23647978 98.3576568,6.23647978 C101.240831,6.23647978 105.22452,8.77695956 105.643969,9.03100754 C106.272783,9.43741192 107.059431,9.03100754 107.47852,8.42122001 L109.470544,5.52536258 C109.837382,5.01726662 109.680269,4.15343112 109.155957,3.8487183 C108.107694,3.08693626 104.019143,0.444764907 98.6722439,0.444764907 C90.3376684,0.444764907 86.8782917,5.67771898 86.8782917,10.1995559 C86.8782917,16.1418177 91.7196174,19.1882221 96.6034645,21.1214476 L99.8797826,15.4621851 C95.6701535,13.7931405 93.7451545,12.1711419 93.7451545,9.79278958" id="s1-1" opacity="0.800000012" sketch:type="MSShapeGroup"></path>
        </g>
    </g>
</svg>