<?xml version="1.0" encoding="UTF-8" standalone="no"?>
<svg width="86px" height="117px" viewBox="0 0 86 117" version="1.1" xmlns="http://www.w3.org/2000/svg" xmlns:xlink="http://www.w3.org/1999/xlink" xmlns:sketch="http://www.bohemiancoding.com/sketch/ns">
    <!-- Generator: Sketch 3.3.2 (12043) - http://www.bohemiancoding.com/sketch -->
    <title>line-map_marker</title>
    <desc>Created with Sketch.</desc>
    <defs></defs>
    <g id="Styles" stroke="none" stroke-width="1" fill="none" fill-rule="evenodd" sketch:type="MSPage">
        <g id="Icons" sketch:type="MSArtboardGroup" transform="translate(-703.000000, -875.000000)" stroke="#215CFF" stroke-width="4">
            <path d="M763.838759,917.582115 C763.838759,927.475731 755.776069,935.505423 745.81469,935.505423 C735.851724,935.505423 727.790621,927.475731 727.790621,917.582115 C727.790621,907.682192 735.851724,899.660385 745.81469,899.660385 C755.776069,899.660385 763.838759,907.682192 763.838759,917.582115 L763.838759,917.582115 Z M786.629379,917.582115 C786.629379,939.991769 745.81469,988.433269 745.81469,988.433269 C745.81469,988.433269 705,939.991769 705,917.582115 C705,895.172462 723.276276,877 745.81469,877 C768.362621,877 786.629379,895.172462 786.629379,917.582115 L786.629379,917.582115 Z" id="line-map_marker" sketch:type="MSShapeGroup"></path>
        </g>
    </g>
</svg>